<?xml version="1.0" encoding="UTF-8" standalone="no"?>
<!-- Created with Inkscape (http://www.inkscape.org/) -->

<svg
   version="1.1"
   id="svg2"
   width="1200"
   height="1200"
   viewBox="0 0 1200 1200"
   sodipodi:docname="bear-clipart-vector-pd.svg"
   inkscape:version="1.2 (dc2aedaf03, 2022-05-15)"
   xmlns:inkscape="http://www.inkscape.org/namespaces/inkscape"
   xmlns:sodipodi="http://sodipodi.sourceforge.net/DTD/sodipodi-0.dtd"
   xmlns="http://www.w3.org/2000/svg"
   xmlns:svg="http://www.w3.org/2000/svg">
  <defs
     id="defs6">
    <clipPath
       clipPathUnits="userSpaceOnUse"
       id="clipPath18">
      <path
         d="M 0,900 H 900 V 0 H 0 Z"
         id="path16" />
    </clipPath>
  </defs>
  <sodipodi:namedview
     id="namedview4"
     pagecolor="#ffffff"
     bordercolor="#000000"
     borderopacity="0.25"
     inkscape:showpageshadow="2"
     inkscape:pageopacity="0.0"
     inkscape:pagecheckerboard="0"
     inkscape:deskcolor="#d1d1d1"
     showgrid="false"
     inkscape:zoom="0.6975"
     inkscape:cx="600"
     inkscape:cy="600.71685"
     inkscape:window-width="1920"
     inkscape:window-height="1017"
     inkscape:window-x="-8"
     inkscape:window-y="-8"
     inkscape:window-maximized="1"
     inkscape:current-layer="g10">
    <inkscape:page
       x="0"
       y="0"
       id="page8"
       width="1200"
       height="1200" />
  </sodipodi:namedview>
  <g
     id="g10"
     inkscape:groupmode="layer"
     inkscape:label="Page 1"
     transform="matrix(1.3333333,0,0,-1.3333333,0,1200)">
    <g
       id="g12">
      <g
         id="g14"
         clip-path="url(#clipPath18)">
        <g
           id="g20"
           transform="translate(444.4648,254.4609)">
          <path
             d="m 0,0 c 14.485,0 26.229,16.932 26.229,37.816 0,17.909 -8.644,32.873 -20.239,36.786 L 0,25.291 -5.988,74.602 C -17.584,70.689 -26.228,55.725 -26.228,37.816 -26.228,16.932 -14.486,0 0,0"
             style="fill:#ed1c24;fill-opacity:1;fill-rule:nonzero;stroke:none"
             id="path22" />
        </g>
        <g
           id="g24"
           transform="translate(533.1299,584.5415)">
          <path
             d="M 0,0 C 0,3.483 2.824,6.309 6.31,6.309 9.792,6.309 12.614,3.483 12.614,0 12.614,-3.482 9.792,-6.308 6.31,-6.308 2.824,-6.308 0,-3.482 0,0 m -197.536,0 c 0,-3.482 -2.823,-6.308 -6.306,-6.308 -3.484,0 -6.307,2.826 -6.307,6.308 0,3.483 2.823,6.309 6.307,6.309 3.483,0 6.306,-2.826 6.306,-6.309 m 47.653,-228.592 c 5.668,17.209 18.451,4.582 18.96,2.144 0.51,-2.435 4.554,-43.678 2.609,-54.273 -9.416,8.307 -21.569,52.129 -21.569,52.129 m 142.535,-88.772 c 3.731,10.653 5.738,21.967 7.318,33.363 1.525,11.422 2.473,23 3.386,34.653 0.981,11.646 1.633,23.412 3.415,35.191 1.902,-11.728 3.085,-23.476 3.509,-35.34 0.38,-11.849 0.026,-23.783 -1.553,-35.675 -1.628,-11.856 -4.355,-23.795 -9.669,-34.889 -2.662,-5.52 -6.123,-10.764 -10.485,-15.166 -4.401,-4.328 -9.828,-7.742 -15.687,-8.971 10.351,6.135 16.04,16.274 19.766,26.834 m -41.114,37.401 c -1.942,10.597 2.129,49.619 2.638,52.056 0.51,2.436 14.327,16.674 18.963,-2.146 0,0 -12.183,-41.604 -21.601,-49.91 m -12.826,-70.793 c -1.704,0.746 -3.031,2.212 -3.913,3.523 1.118,2.059 2.109,4.406 2.873,6.412 2.757,2.402 6.351,5.588 8.869,9.111 0.459,0.649 1.117,0.534 1.305,0.481 0.183,-0.047 0.78,-0.264 0.859,-1.016 0.575,-5.699 0.436,-13.257 -3.508,-16.904 -2.165,-2.002 -4.352,-2.543 -6.485,-1.607 m -8.969,0.595 c -2.221,-0.99 -3.492,-0.095 -3.959,0.377 0.148,5.623 0.409,11.707 0.63,13.217 1.621,0.66 8.467,0.676 10.439,0.063 -1.631,-4.998 -4.823,-12.641 -7.11,-13.657 m -43.554,-0.595 c -2.145,-0.938 -4.325,-0.395 -6.488,1.607 -3.941,3.647 -4.082,11.205 -3.504,16.904 0.075,0.752 0.673,0.969 0.857,1.016 0.064,0.018 0.18,0.045 0.324,0.045 0.284,0 0.676,-0.096 0.985,-0.526 2.513,-3.523 6.108,-6.709 8.864,-9.109 0.761,-2.004 1.75,-4.344 2.865,-6.4 -0.879,-1.328 -2.204,-2.793 -3.903,-3.537 m -11.887,7.875 c -4.382,-2.077 -9.797,-3.557 -11.217,-2.791 -1.037,0.558 -3.063,2.689 -4.994,10.703 -2.851,11.84 -3.405,27.767 -2.466,31.345 0.793,-0.894 2.065,-3.212 3.303,-5.468 2.904,-5.293 7.397,-13.481 15.137,-22.668 -0.017,-0.09 -0.058,-0.17 -0.068,-0.262 -0.337,-3.338 -0.401,-7.266 0.305,-10.859 m 10.624,97.228 c -0.414,-1.383 -13.147,-1.42 -12.706,0.231 0,0 4.191,13.306 7.922,14.962 3.728,1.657 5.521,-1 5.521,-1 0,0 -0.323,-12.812 -0.737,-14.193 m 29.211,-90.432 c 1.482,0.606 7.379,0.546 9.025,-0.068 -1.161,-5.574 -2.825,-11.883 -3.487,-12.631 -2.192,-1.254 -4.132,-0.574 -4.955,-0.162 -0.406,5.475 -0.708,11.387 -0.583,12.861 m 24.165,91.182 c -0.415,1.381 -0.738,14.196 -0.738,14.196 0,0 1.793,2.656 5.522,1 3.729,-1.659 7.919,-14.963 7.919,-14.963 0.441,-1.651 -12.289,-1.614 -12.703,-0.233 m 12.599,-87.119 c -0.008,0.092 -0.05,0.172 -0.067,0.262 7.74,9.187 12.231,17.377 15.135,22.668 1.241,2.26 2.516,4.584 3.304,5.472 0.94,-3.566 0.387,-19.506 -2.465,-31.349 -1.931,-8.014 -3.957,-10.145 -4.996,-10.703 -1.416,-0.772 -6.832,0.712 -11.215,2.791 0.707,3.592 0.642,7.523 0.304,10.859 m -45.554,76.543 5.989,-49.31 5.989,49.31 c 11.595,-3.912 20.239,-18.877 20.239,-36.785 0,-20.885 -11.744,-37.815 -26.228,-37.815 -14.488,0 -26.23,16.93 -26.23,37.815 0,17.908 8.645,32.873 20.241,36.785 m -11.197,25.772 c 3.73,1.656 5.523,-1 5.523,-1 0,0 -0.322,-12.815 -0.738,-14.196 -0.413,-1.381 -13.145,-1.418 -12.703,0.233 0,0 4.19,13.304 7.918,14.963 m 18.402,-15.655 c -0.414,1.381 0.552,14.088 0.552,14.088 0,0 3.02,2.162 6.563,0.139 1.458,-0.832 4.12,-13.858 4.12,-13.858 0.442,-1.652 -10.819,-1.75 -11.235,-0.369 m -12.553,0.369 c 0,0 2.66,13.026 4.12,13.858 3.545,2.023 6.56,-0.139 6.56,-0.139 0,0 0.969,-12.707 0.552,-14.088 -0.414,-1.381 -11.675,-1.283 -11.232,0.369 m 37.554,0.323 c 0.441,-1.651 -12.287,-1.614 -12.704,-0.233 -0.414,1.381 -0.739,14.196 -0.739,14.196 0,0 1.795,2.656 5.524,1 3.729,-1.659 7.919,-14.963 7.919,-14.963 m -10.76,125.518 c -1.019,2.42 -1.633,5.058 -1.68,7.819 0,2.75 0.704,5.604 2.161,8.1 1.407,2.536 3.599,4.574 6.006,6.118 2.45,1.506 5.177,2.456 7.948,2.978 5.532,0.889 11.512,0.158 16.292,-3.181 2.366,-1.633 4.283,-4.056 5.121,-6.796 0.831,-2.752 0.497,-5.618 -0.486,-8.041 0.035,2.624 -0.311,5.181 -1.514,7.23 -1.133,2.072 -2.918,3.604 -4.938,4.692 -4.098,2.118 -9.103,2.574 -13.713,1.744 -4.632,-0.768 -9.029,-2.973 -11.831,-6.634 -1.376,-1.838 -2.402,-4.024 -2.887,-6.432 -0.529,-2.409 -0.544,-4.959 -0.479,-7.597 m -30.747,7.597 c -0.482,2.408 -1.508,4.594 -2.884,6.432 -2.805,3.661 -7.201,5.866 -11.832,6.634 -4.61,0.83 -9.614,0.374 -13.717,-1.744 -2.016,-1.088 -3.802,-2.62 -4.935,-4.692 -1.2,-2.049 -1.549,-4.606 -1.514,-7.23 -0.984,2.423 -1.316,5.289 -0.487,8.041 0.84,2.74 2.756,5.163 5.123,6.796 4.778,3.339 10.759,4.07 16.292,3.181 2.771,-0.522 5.496,-1.472 7.946,-2.978 2.408,-1.544 4.601,-3.582 6.008,-6.118 1.456,-2.496 2.16,-5.35 2.16,-8.1 -0.047,-2.761 -0.66,-5.399 -1.68,-7.819 0.065,2.638 0.05,5.188 -0.48,7.597 m -8.002,-224.949 c 1.977,0.613 8.821,0.597 10.442,-0.063 0.222,-1.514 0.484,-7.597 0.628,-13.221 -0.456,-0.466 -1.71,-1.371 -3.958,-0.373 -2.285,1.016 -5.474,8.659 -7.112,13.657 m 17.283,-12.354 c -0.765,0.819 -2.429,7.131 -3.587,12.707 1.641,0.609 7.531,0.672 9.022,0.068 0.126,-1.503 -0.176,-7.404 -0.584,-12.865 -0.825,-0.414 -2.736,-1.109 -4.851,0.09 m -111.444,213.498 c 0,76.894 52.717,139.228 117.743,139.228 65.028,0 117.744,-62.334 117.744,-139.228 0,-33.066 -43.557,-51.9 -93.202,-56.527 23.423,18.031 39.918,57.714 39.918,80.469 0,30.107 -28.859,54.512 -64.46,54.512 -35.597,0 -64.456,-24.405 -64.456,-54.512 0,-22.755 16.493,-62.438 39.916,-80.469 -49.646,4.627 -93.203,23.461 -93.203,56.527 m 27.116,-184.701 c -5.314,11.094 -8.041,23.033 -9.67,34.889 -1.577,11.892 -1.933,23.826 -1.554,35.675 0.426,11.864 1.61,23.612 3.509,35.34 1.783,-11.779 2.436,-23.545 3.417,-35.191 0.911,-11.653 1.862,-23.231 3.386,-34.653 1.579,-11.396 3.586,-22.71 7.317,-33.363 3.727,-10.56 9.419,-20.699 19.767,-26.834 -5.858,1.229 -11.284,4.643 -15.69,8.971 -4.361,4.402 -7.819,9.646 -10.482,15.166 m -63.757,87.775 c -8.246,22.319 -12.111,46.446 -11.091,70.409 0.976,23.955 6.816,47.733 17.217,69.203 10.383,21.429 25.258,40.728 43.839,54.92 -14.701,-18.115 -26.262,-37.957 -34.303,-59.045 -8.087,-21.053 -12.6,-43.271 -13.51,-65.631 -0.914,-22.364 1.75,-44.862 7.77,-66.655 6.001,-21.829 15.399,-42.777 26.719,-63.179 -15.805,17.162 -28.352,37.666 -36.641,59.978 m -145.799,371.328 c 2.275,2.283 5.573,3.214 8.682,3.797 3.162,0.597 6.377,0.78 9.577,0.802 6.409,-0.04 12.786,-0.762 19.066,-1.928 12.573,-2.313 24.778,-6.314 36.504,-11.366 11.663,-5.184 22.89,-11.47 33.046,-19.232 5.077,-3.871 9.943,-8.024 14.386,-12.599 4.375,-4.633 8.543,-9.456 12.071,-14.722 -8.501,9.39 -18.13,17.501 -28.461,24.529 -5.174,3.506 -10.496,6.786 -16.001,9.736 -5.482,2.984 -11.062,5.804 -16.813,8.241 -11.438,5.01 -23.3,9.099 -35.444,12.038 -6.078,1.429 -12.232,2.592 -18.446,3.136 -3.102,0.308 -6.232,0.459 -9.331,0.204 -0.782,-0.032 -1.553,-0.128 -2.315,-0.263 -0.775,-0.099 -1.538,-0.244 -2.279,-0.468 -1.538,-0.304 -2.947,-0.985 -4.242,-1.905 M 82.356,111.115 c 10.156,7.762 21.382,14.048 33.045,19.232 11.726,5.052 23.93,9.053 36.504,11.366 6.28,1.166 12.657,1.888 19.066,1.928 3.201,-0.022 6.415,-0.205 9.577,-0.802 3.109,-0.583 6.407,-1.514 8.682,-3.797 -1.295,0.92 -2.703,1.601 -4.242,1.905 -0.742,0.224 -1.505,0.369 -2.278,0.468 -0.765,0.135 -1.534,0.231 -2.316,0.263 -3.097,0.255 -6.23,0.104 -9.332,-0.204 -6.213,-0.544 -12.365,-1.707 -18.445,-3.136 -12.143,-2.939 -24.007,-7.028 -35.444,-12.038 -5.751,-2.437 -11.331,-5.257 -16.813,-8.241 -5.506,-2.95 -10.827,-6.23 -16,-9.736 -10.333,-7.028 -19.962,-15.139 -28.463,-24.529 3.53,5.266 7.699,10.089 12.072,14.722 4.441,4.575 9.31,8.728 14.387,12.599 M 2.067,-19.71 c 2.357,-1.762 4.894,-3.261 7.482,-4.634 5.198,-2.685 10.703,-4.807 16.337,-5.982 5.59,-1.218 11.451,-1.512 16.671,0.313 2.586,0.933 4.99,2.428 6.94,4.513 2.003,2.05 3.499,4.642 4.795,7.412 -0.353,-3.031 -1.352,-6.056 -3.091,-8.754 -1.756,-2.679 -4.319,-4.932 -7.293,-6.345 -2.952,-1.483 -6.233,-2.091 -9.437,-2.297 -3.223,-0.144 -6.411,0.214 -9.506,0.838 -6.168,1.382 -12.003,3.863 -17.176,7.35 -2.595,1.723 -5.015,3.721 -7.165,5.982 -2.101,2.269 -4.006,4.916 -4.799,7.893 1.684,-2.551 3.857,-4.554 6.242,-6.289 M 6.31,11.049 c 6.1,0 11.046,-4.947 11.046,-11.049 0,-6.102 -4.946,-11.049 -11.046,-11.049 -6.105,0 -11.051,4.947 -11.051,11.049 0,6.102 4.946,11.049 11.051,11.049 m -17.381,6.516 c 2.293,1.698 5.172,2.64 8.103,2.952 2.945,0.276 5.944,-0.051 8.789,-0.82 5.739,-1.503 10.854,-4.577 15.38,-8.189 4.475,-3.699 8.42,-8.042 11.389,-13.045 1.499,-2.486 2.729,-5.151 3.557,-7.954 0.791,-2.781 1.136,-5.851 0.32,-8.597 -0.181,2.84 -1.071,5.414 -2.343,7.812 -1.224,2.412 -2.76,4.654 -4.39,6.807 -3.319,4.268 -7.122,8.177 -11.324,11.552 -4.151,3.422 -8.716,6.369 -13.65,8.346 -4.923,1.932 -10.364,2.832 -15.831,1.136 m 2.536,15.17 c 3.908,1.936 8.256,2.795 12.484,2.739 4.236,-0.114 8.366,-0.948 12.236,-2.358 7.701,-2.919 14.496,-7.511 20.282,-13.004 -6.889,4.028 -13.957,7.591 -21.333,9.718 -7.336,1.949 -15.236,2.292 -21.67,-1.035 -3.24,-1.542 -5.953,-4.042 -7.893,-7.062 -2.033,-2.979 -3.119,-6.559 -3.394,-10.21 -0.613,-7.373 3.027,-14.893 9.299,-19.85 -3.624,1.698 -6.82,4.475 -9.112,7.955 -2.275,3.49 -3.624,7.691 -3.624,11.974 -0.291,8.571 4.833,17.269 12.725,21.133 M -181.464,11.523 c -0.275,3.651 -1.361,7.231 -3.395,10.21 -1.937,3.02 -4.65,5.52 -7.892,7.062 -6.436,3.327 -14.334,2.984 -21.67,1.035 -7.376,-2.127 -14.443,-5.69 -21.332,-9.718 5.787,5.493 12.581,10.085 20.282,13.004 3.868,1.41 8.001,2.244 12.237,2.358 4.231,0.056 8.575,-0.803 12.483,-2.741 7.892,-3.862 13.016,-12.56 12.725,-21.131 -0.002,-4.283 -1.35,-8.484 -3.624,-11.974 -2.292,-3.48 -5.487,-6.257 -9.111,-7.955 6.271,4.957 9.909,12.477 9.297,19.85 m -22.58,4.906 c -4.938,-1.977 -9.501,-4.924 -13.652,-8.346 -4.203,-3.375 -8.005,-7.284 -11.324,-11.552 -1.632,-2.153 -3.166,-4.395 -4.391,-6.807 -1.273,-2.398 -2.163,-4.972 -2.342,-7.812 -0.816,2.746 -0.472,5.816 0.32,8.597 0.827,2.803 2.057,5.468 3.555,7.954 2.971,5.003 6.915,9.346 11.39,13.045 4.528,3.612 9.642,6.686 15.38,8.189 2.845,0.769 5.845,1.096 8.787,0.82 2.934,-0.312 5.812,-1.254 8.106,-2.952 -5.466,1.696 -10.908,0.796 -15.829,-1.136 m 0.202,-27.478 c -6.103,0 -11.051,4.947 -11.051,11.049 0,6.102 4.948,11.049 11.051,11.049 6.102,0 11.049,-4.947 11.049,-11.049 0,-6.102 -4.947,-11.049 -11.049,-11.049 M -248.785,-25.5 c 1.953,-2.085 4.354,-3.58 6.942,-4.513 5.219,-1.825 11.082,-1.531 16.671,-0.313 5.634,1.175 11.139,3.297 16.34,5.982 2.583,1.373 5.123,2.872 7.477,4.634 2.386,1.735 4.56,3.738 6.242,6.289 -0.791,-2.977 -2.697,-5.625 -4.799,-7.893 -2.15,-2.261 -4.567,-4.259 -7.163,-5.982 -5.174,-3.487 -11.008,-5.968 -17.177,-7.35 -3.096,-0.624 -6.282,-0.982 -9.505,-0.838 -3.203,0.206 -6.485,0.814 -9.437,2.297 -2.975,1.413 -5.537,3.666 -7.295,6.345 -1.738,2.698 -2.736,5.723 -3.091,8.754 1.298,-2.77 2.794,-5.362 4.795,-7.412 M 60.662,-162.43 c -0.909,22.36 -5.423,44.578 -13.51,65.631 -8.041,21.088 -19.601,40.93 -34.302,59.045 18.582,-14.192 33.457,-33.491 43.84,-54.92 10.4,-21.47 16.24,-45.248 17.216,-69.203 1.02,-23.963 -2.843,-48.09 -11.092,-70.409 -8.289,-22.312 -20.835,-42.816 -36.641,-59.978 11.32,20.402 20.718,41.35 26.72,63.179 6.019,21.793 8.685,44.291 7.769,66.655 m 167.481,23.572 c -0.008,0.013 -0.015,0.027 -0.023,0.041 -1.592,2.715 -4.908,3.794 -7.752,2.644 l 4.491,2.664 c 2.946,1.747 3.938,5.534 2.24,8.499 l 1.669,0.988 c 2.957,1.753 3.948,5.559 2.226,8.528 2.816,1.805 3.726,5.525 2.027,8.435 -0.059,0.101 -0.119,0.199 -0.182,0.293 1.649,1.97 1.973,4.841 0.602,7.185 -0.014,0.025 -0.027,0.049 -0.042,0.07 2.21,1.933 2.817,5.214 1.3,7.843 l 0.366,0.217 c 2.965,1.757 3.958,5.578 2.219,8.553 -0.923,1.576 -2.425,2.601 -4.08,2.962 -0.141,0.53 -0.356,1.048 -0.644,1.545 -1.743,2.976 -5.556,3.988 -8.541,2.263 l -7.814,-4.51 c -0.003,0.003 -0.005,0.006 -0.006,0.01 2.701,1.789 3.595,5.36 2.036,8.214 l 13.091,7.741 c 2.968,1.756 3.961,5.578 2.222,8.553 -0.719,1.23 -1.793,2.127 -3.018,2.631 -0.1,0.82 -0.366,1.633 -0.81,2.392 -1.607,2.748 -4.985,3.824 -7.848,2.61 l 4.061,2.398 c 2.965,1.755 3.959,5.577 2.219,8.554 -0.465,0.797 -1.078,1.455 -1.785,1.954 0.125,1.268 -0.136,2.585 -0.828,3.769 -0.302,0.519 -0.668,0.977 -1.079,1.372 0.455,1.584 0.284,3.35 -0.613,4.885 -0.078,0.137 -0.162,0.268 -0.251,0.396 1.472,1.957 1.716,4.68 0.403,6.925 -0.951,1.627 -2.522,2.668 -4.237,2.994 -0.143,0.493 -0.346,0.974 -0.616,1.437 -0.336,0.576 -0.75,1.079 -1.221,1.502 0.369,1.519 0.174,3.179 -0.68,4.635 -1.735,2.975 -5.549,3.987 -8.539,2.267 l -2.813,-1.624 0.094,0.057 c 2.955,1.744 3.952,5.542 2.245,8.513 l 1.093,0.644 c 2.967,1.753 3.961,5.576 2.225,8.554 -1.74,2.974 -5.554,3.99 -8.542,2.266 l -5.009,-2.892 c -0.008,0.011 -0.012,0.02 -0.018,0.029 -0.952,1.633 -2.532,2.673 -4.254,2.998 -0.142,0.487 -0.345,0.967 -0.612,1.423 -0.023,0.042 -0.048,0.082 -0.074,0.124 2.061,1.957 2.586,5.14 1.09,7.699 -0.045,0.077 -0.11,0.138 -0.158,0.214 10.949,53.732 11.242,112.522 -2.171,132.642 -15.144,22.715 -79.051,10.667 -122.407,-10.187 -0.509,-0.065 -1.015,-0.171 -1.506,-0.367 l 5.073,3.009 c 2.965,1.758 3.953,5.578 2.211,8.551 -1.739,2.975 -5.553,3.988 -8.536,2.263 l -5.961,-3.442 c -0.008,0.012 -0.014,0.022 -0.021,0.031 -1.085,1.855 -2.978,2.947 -4.972,3.087 -0.124,0.342 -0.282,0.678 -0.474,1.003 -1.742,2.974 -5.553,3.986 -8.538,2.262 l -1.133,-0.655 c -0.007,0.01 -0.013,0.022 -0.018,0.033 -1.394,2.38 -4.109,3.5 -6.685,2.968 -0.052,0.105 -0.11,0.208 -0.169,0.308 -0.899,1.537 -2.353,2.55 -3.961,2.932 -0.141,0.558 -0.361,1.107 -0.667,1.631 -1.643,2.805 -5.133,3.861 -8.029,2.525 l 1.743,1.034 c 2.959,1.762 3.943,5.581 2.203,8.552 -1.741,2.969 -5.55,3.98 -8.537,2.258 l -7.219,-4.167 0.045,0.028 c 2.963,1.76 3.948,5.578 2.206,8.553 -1.739,2.968 -5.553,3.978 -8.537,2.256 L 6.24,188.748 c -0.009,0.013 -0.014,0.025 -0.02,0.037 -1.741,2.97 -5.55,3.979 -8.537,2.256 l -3.882,-2.24 c -0.009,0.011 -0.015,0.025 -0.023,0.037 -1.743,2.967 -5.551,3.978 -8.535,2.256 l -7.823,-4.518 c -0.009,0.014 -0.015,0.027 -0.023,0.041 -1.729,2.945 -5.504,3.96 -8.476,2.286 -0.009,0.014 -0.016,0.027 -0.024,0.04 -0.077,0.134 -0.159,0.262 -0.246,0.386 1.471,1.961 1.705,4.69 0.386,6.933 -1.74,2.964 -5.548,3.97 -8.53,2.25 l -9.142,-5.278 c -0.009,0.015 -0.017,0.028 -0.026,0.043 -1.742,2.963 -5.547,3.97 -8.529,2.25 l -0.362,-0.207 c -0.009,0.014 -0.02,0.031 -0.029,0.046 -0.28,0.477 -0.617,0.904 -0.993,1.278 0.509,1.629 0.353,3.46 -0.581,5.046 -1.744,2.962 -5.547,3.967 -8.531,2.247 l -20.24,-11.687 c -0.003,0.003 -0.003,0.005 -0.005,0.006 2.823,1.812 3.724,5.546 2.008,8.452 -1.745,2.961 -5.55,3.962 -8.526,2.242 l -6.206,-3.582 c -0.011,0.017 -0.022,0.039 -0.031,0.057 -1.753,2.955 -5.554,3.951 -8.528,2.235 l -5.056,-2.919 c -0.011,0.019 -0.023,0.04 -0.035,0.059 -1.75,2.954 -5.548,3.947 -8.521,2.234 l -28.782,-16.616 c -0.012,0.025 -0.03,0.052 -0.044,0.077 -0.187,0.314 -0.397,0.607 -0.627,0.874 0.823,1.811 0.772,3.981 -0.321,5.815 -1.755,2.941 -5.543,3.923 -8.512,2.214 l -32.559,-18.8 c -0.025,0.039 -0.047,0.08 -0.071,0.118 -1.769,2.914 -5.538,3.877 -8.489,2.176 l -60.948,-35.187 c -43.16,22.849 -113.122,37.453 -129.062,13.543 -15.562,-23.343 -12.675,-98.74 3.898,-157.894 l -11.866,-7.103 c -2.953,-1.765 -3.928,-5.583 -2.184,-8.549 1.743,-2.969 5.553,-3.969 8.532,-2.253 l 2.884,1.668 c -2.953,-1.765 -3.928,-5.585 -2.185,-8.55 0.038,-0.067 0.079,-0.134 0.121,-0.199 -1.809,-1.953 -2.228,-4.92 -0.853,-7.345 l -3.141,-1.873 c -2.957,-1.764 -3.937,-5.58 -2.193,-8.551 0.338,-0.575 0.753,-1.078 1.226,-1.502 -0.343,-1.438 -0.179,-3 0.565,-4.396 l -14.528,-8.636 c -2.958,-1.761 -3.944,-5.581 -2.203,-8.551 1.436,-2.451 4.281,-3.569 6.902,-2.916 0.045,-0.087 0.093,-0.17 0.142,-0.253 1.439,-2.457 4.299,-3.566 6.931,-2.91 l -16.377,-9.731 c -2.961,-1.758 -3.947,-5.579 -2.206,-8.55 1.743,-2.975 5.559,-3.979 8.539,-2.259 l 0.71,0.41 -0.039,-0.022 c -2.942,-1.747 -3.934,-5.528 -2.242,-8.493 l -2.247,-1.333 c -2.961,-1.758 -3.948,-5.579 -2.207,-8.552 0.588,-1.005 1.411,-1.786 2.363,-2.314 0.016,-1.042 0.294,-2.093 0.858,-3.058 1.726,-2.954 5.504,-3.972 8.474,-2.298 0.006,-0.011 0.013,-0.02 0.02,-0.032 0.033,-0.055 0.064,-0.111 0.098,-0.163 -1.894,-1.924 -2.376,-4.921 -1.032,-7.387 l -11.88,-7.039 c -2.954,-1.751 -3.947,-5.552 -2.241,-8.528 -2.966,-1.755 -3.956,-5.577 -2.215,-8.551 1.354,-2.315 3.969,-3.44 6.459,-3.016 0.063,-0.125 0.13,-0.25 0.202,-0.373 0.906,-1.551 2.376,-2.568 3.997,-2.943 0.142,-0.547 0.362,-1.086 0.661,-1.6 0.94,-1.607 2.484,-2.641 4.178,-2.98 0.135,-0.483 0.329,-0.959 0.589,-1.415 l -3.387,-2.002 c -2.968,-1.755 -3.96,-5.578 -2.22,-8.554 1.654,-2.83 5.186,-3.881 8.096,-2.498 l -1.675,-0.99 c -2.967,-1.756 -3.959,-5.577 -2.218,-8.553 1.642,-2.817 5.149,-3.867 8.05,-2.52 l -2.031,-1.199 c -2.941,-1.742 -3.942,-5.518 -2.259,-8.484 l -4.093,-2.418 c -2.968,-1.756 -3.961,-5.576 -2.223,-8.553 1.714,-2.934 5.446,-3.957 8.412,-2.338 l -0.141,-0.086 c -2.969,-1.752 -3.962,-5.574 -2.223,-8.551 1.738,-2.978 5.557,-3.988 8.542,-2.265 l 1.642,0.947 c 0.006,-0.01 0.011,-0.018 0.017,-0.027 1.649,-2.819 5.154,-3.875 8.059,-2.518 l -1.954,-1.154 c -2.952,-1.742 -3.949,-5.533 -2.248,-8.502 l -2.126,-1.258 c -2.968,-1.752 -3.96,-5.576 -2.223,-8.551 1.064,-1.824 2.909,-2.91 4.863,-3.084 0.129,-0.359 0.293,-0.713 0.493,-1.056 1.739,-2.979 5.557,-3.991 8.543,-2.266 l 1,0.578 c 0.006,-0.01 0.013,-0.019 0.017,-0.029 1.368,-2.336 4.015,-3.465 6.532,-3.004 0.048,-0.096 0.1,-0.192 0.154,-0.285 l -3.633,-2.145 c -2.97,-1.754 -3.964,-5.576 -2.225,-8.553 1.738,-2.976 5.558,-3.99 8.542,-2.267 l 5.225,3.017 c 0.006,-0.009 0.01,-0.017 0.016,-0.027 0.392,-0.672 0.891,-1.242 1.459,-1.705 -0.247,-1.398 -0.023,-2.887 0.738,-4.209 l -1.085,-0.641 c -2.966,-1.753 -3.959,-5.578 -2.221,-8.552 1.558,-2.668 4.787,-3.756 7.587,-2.715 0.005,-0.01 0.008,-0.018 0.012,-0.023 l -5.293,-3.128 c -2.969,-1.753 -3.961,-5.576 -2.222,-8.554 0.203,-0.348 0.432,-0.666 0.688,-0.961 -0.782,-1.774 -0.731,-3.885 0.322,-5.688 1.737,-2.974 5.555,-3.988 8.542,-2.267 l 4.606,2.662 c 0.005,-0.01 0.01,-0.02 0.015,-0.029 0.951,-1.625 2.518,-2.664 4.232,-2.995 0.142,-0.492 0.347,-0.976 0.616,-1.439 1.338,-2.289 3.914,-3.428 6.376,-3.031 0.044,-0.088 0.088,-0.174 0.135,-0.26 l -11.396,-6.729 c -2.969,-1.751 -3.963,-5.574 -2.225,-8.552 1.739,-2.977 5.555,-3.989 8.542,-2.268 l 7.955,4.594 c 0.095,-0.838 0.354,-1.67 0.808,-2.445 0.25,-0.43 0.553,-0.807 0.882,-1.151 0.113,-0.777 0.325,-1.549 0.744,-2.267 1.086,-1.858 2.98,-2.952 4.976,-3.09 0.116,-0.317 0.26,-0.627 0.43,-0.93 l -4.346,-2.564 c -2.967,-1.754 -3.961,-5.578 -2.223,-8.557 0.571,-0.979 1.37,-1.746 2.287,-2.271 0.003,-1.071 0.278,-2.157 0.858,-3.145 1.737,-2.978 5.557,-3.988 8.541,-2.266 l 5.43,3.135 c -2.964,-1.754 -3.957,-5.574 -2.219,-8.551 1.603,-2.742 4.965,-3.814 7.817,-2.625 0.014,-0.023 0.029,-0.046 0.042,-0.072 1.74,-2.976 5.558,-3.986 8.541,-2.266 l 2.923,1.69 -0.046,-0.029 c -2.967,-1.754 -3.96,-5.577 -2.223,-8.553 1.479,-2.529 4.458,-3.635 7.149,-2.861 0.034,-0.063 0.069,-0.124 0.107,-0.186 1.736,-2.977 5.554,-3.986 8.539,-2.264 l 1.822,1.051 c 0.007,-0.01 0.013,-0.019 0.017,-0.029 1.701,-2.906 5.384,-3.941 8.335,-2.377 l -0.366,-0.217 c -2.955,-1.75 -3.949,-5.549 -2.236,-8.521 l -0.263,-0.153 c -2.966,-1.756 -3.957,-5.578 -2.218,-8.554 1.469,-2.51 4.414,-3.618 7.093,-2.875 0.037,-0.065 0.073,-0.131 0.113,-0.2 1.738,-2.974 5.557,-3.984 8.541,-2.263 l 4.409,2.547 -0.047,-0.028 c -2.965,-1.756 -3.956,-5.578 -2.216,-8.55 1.739,-2.977 5.558,-3.985 8.541,-2.266 l 9.737,5.621 c 0.005,-0.008 0.011,-0.02 0.018,-0.029 0.839,-1.434 2.16,-2.411 3.636,-2.846 0.136,-0.643 0.376,-1.274 0.725,-1.871 0.048,-0.082 0.096,-0.162 0.148,-0.242 -1.753,-1.971 -2.126,-4.924 -0.721,-7.323 1.742,-2.974 5.556,-3.982 8.539,-2.261 l 7.664,4.423 c 1.574,-0.912 3.157,-1.806 4.749,-2.685 0.143,-0.512 0.327,-1.018 0.608,-1.496 1.098,-1.873 3.016,-2.969 5.034,-3.09 0.122,-0.332 0.277,-0.656 0.462,-0.973 1.74,-2.972 5.558,-3.982 8.538,-2.258 l 0.26,0.149 c 5.405,-2.559 10.902,-4.916 16.472,-7.098 -0.409,-1.556 -0.225,-3.267 0.652,-4.765 1.741,-2.971 5.553,-3.975 8.535,-2.256 l 3.955,2.281 c 0.036,-0.012 0.072,-0.023 0.107,-0.035 0.673,-1.127 1.641,-1.971 2.753,-2.485 0.078,-0.898 0.352,-1.796 0.84,-2.626 1.689,-2.885 5.325,-3.916 8.264,-2.403 0.009,-0.015 0.018,-0.029 0.026,-0.045 1.744,-2.97 5.553,-3.972 8.537,-2.256 l 4.987,2.881 c 0.978,-0.213 1.958,-0.426 2.939,-0.629 -0.343,-1.502 -0.147,-3.13 0.695,-4.562 1.744,-2.965 5.554,-3.971 8.531,-2.252 l 6.987,4.035 c 1.008,-0.138 2.019,-0.26 3.028,-0.387 -0.421,-1.566 -0.259,-3.291 0.627,-4.797 1.168,-1.984 3.257,-3.087 5.405,-3.087 1.061,0 2.141,0.271 3.127,0.839 l 9.363,5.407 c 3.123,-0.159 6.259,-0.252 9.405,-0.297 0.536,-0.069 1.076,-0.092 1.616,-0.022 0.64,-0.005 1.275,-0.027 1.916,-0.027 2.752,0 5.493,0.057 8.225,0.147 0.142,-0.596 0.345,-1.182 0.671,-1.735 1.746,-2.957 5.544,-3.955 8.526,-2.24 l 9.067,5.234 c 0.893,0.096 1.785,0.184 2.676,0.287 1.919,-2.287 5.242,-2.949 7.915,-1.406 l 5.871,3.391 c 1.242,0.217 2.478,0.455 3.716,0.687 1.933,-2.179 5.186,-2.775 7.809,-1.267 l 8.402,4.851 c 0.319,0.082 0.636,0.176 0.954,0.26 1.791,-2.828 5.493,-3.77 8.415,-2.084 l 14.967,8.641 c 0.018,-0.032 0.036,-0.063 0.054,-0.092 1.76,-2.93 5.546,-3.912 8.502,-2.201 l 14.427,8.33 7.087,-2.188 14.532,9.145 9.96,16.045 15.813,0.746 16.292,10.136 12.443,17.108 21.644,2.986 30.255,19.934 c 2.894,1.672 3.949,5.301 2.465,8.246 l 8.866,5.537 c 2.82,1.76 3.761,5.404 2.19,8.299 l 5.086,3.135 c 2.865,1.767 3.814,5.474 2.178,8.392 l 2.811,1.719 c 2.79,1.711 3.773,5.256 2.335,8.137 l 14.908,9.053 c 2.86,1.738 3.837,5.402 2.265,8.322 l 8.148,4.923 c 2.94,1.774 3.902,5.59 2.153,8.545 -0.377,0.643 -0.851,1.19 -1.393,1.641 0.27,1.416 0.053,2.936 -0.722,4.279 l 0.9,0.541 c 2.919,1.76 3.892,5.528 2.204,8.477 l 1.323,0.793 c 2.883,1.732 3.875,5.416 2.288,8.349 l 9.343,5.6 c 2.947,1.77 3.921,5.586 2.178,8.551 -1.471,2.498 -4.403,3.604 -7.088,2.857 l 10.879,6.506 c 2.916,1.744 3.904,5.486 2.251,8.436 l 5.106,3.045 c 2.957,1.763 3.937,5.584 2.192,8.552 -1.468,2.506 -4.414,3.612 -7.097,2.862 l 12.143,7.232 c 2.959,1.762 3.942,5.58 2.201,8.551 -0.973,1.658 -2.59,2.705 -4.349,3.006 -0.142,0.469 -0.34,0.929 -0.598,1.371 -1.557,2.652 -4.759,3.748 -7.558,2.715 -0.023,0.041 -0.046,0.08 -0.068,0.117 -0.017,0.027 -0.03,0.055 -0.047,0.082 2.166,1.949 2.739,5.213 1.209,7.82 -0.344,0.59 -0.768,1.1 -1.253,1.528 0.333,1.431 0.165,2.98 -0.578,4.365 l 14.447,8.58 c 2.949,1.75 3.938,5.543 2.231,8.51 l 0.71,0.42 c 2.961,1.757 3.948,5.578 2.209,8.552 -1.683,2.869 -5.292,3.914 -8.23,2.428"
             style="fill:#000000;fill-opacity:1;fill-rule:nonzero;stroke:none"
             id="path26" />
        </g>
      </g>
    </g>
  </g>
</svg>
