<?xml version="1.0" encoding="UTF-8" standalone="no"?>
<!-- Created with Inkscape (http://www.inkscape.org/) -->

<svg
   version="1.1"
   id="svg8693"
   width="800"
   height="800"
   viewBox="0 0 800 800"
   sodipodi:docname="wolf-illustration-pdv.svg"
   inkscape:version="1.2 (dc2aedaf03, 2022-05-15)"
   xmlns:inkscape="http://www.inkscape.org/namespaces/inkscape"
   xmlns:sodipodi="http://sodipodi.sourceforge.net/DTD/sodipodi-0.dtd"
   xmlns="http://www.w3.org/2000/svg"
   xmlns:svg="http://www.w3.org/2000/svg">
  <defs
     id="defs8697">
    <clipPath
       clipPathUnits="userSpaceOnUse"
       id="clipPath8709">
      <path
         d="m 310.254,143.073 c -0.068,-0.153 -0.101,-0.303 -0.119,-0.455 v 0 c -0.198,-0.026 -0.393,-0.048 -0.599,-0.073 v 0 c -2.637,0.134 -5.502,-0.257 -7.942,-0.697 v 0 c 0.039,0.185 0.112,0.364 0.253,0.536 v 0 c 0.247,0.318 0.66,0.613 1.261,0.838 v 0 l -2.664,0.413 c -0.666,-0.399 -0.871,-0.806 -0.889,-1.191 v 0 c -0.021,-0.317 0.13,-0.621 0.338,-0.917 v 0 c -1.527,-0.304 -2.769,-0.574 -3.492,-0.648 v 0 c -2.012,-0.208 -0.17,-4.761 -0.17,-4.761 v 0 c 3.965,-2.252 -0.256,-7.449 0.51,-11.849 v 0 c 0.27,-1.542 -6.139,-13.272 -8.06,-14.051 v 0 c -1.918,-0.78 -7.674,-9.824 -7.674,-9.824 v 0 c -1.928,0.03 -4.127,0.676 -5.086,1.301 v 0 c -1.387,-0.025 -4.191,-1.398 -4.51,-1.378 v 0 c -1.16,0.073 -3.646,0.442 -4.125,1.013 v 0 c -1.789,-0.137 -7.393,-1.848 -9.164,-2.016 v 0 c -0.176,-0.016 -0.351,-0.035 -0.528,-0.051 v 0 c -3.045,5.427 -23.832,14.82 -29.617,17.267 v 0 c -6.139,2.599 -9.878,7.392 -9.734,8.395 v 0 c 0.205,1.421 0.829,8.682 4.812,9.459 v 0 c 0,0 5.5,2.429 8.571,2.429 v 0 c 3.071,0 5.621,1.782 5.621,1.782 v 0 c 0,0 0.15,0.189 0.024,0.426 v 0 c 0.711,0.222 1.357,0.463 1.917,0.721 v 0 c 0.939,0.423 1.452,0.907 1.803,1.402 v 0 l -3.061,0.066 c -0.068,-0.4 -0.23,-0.813 -0.818,-1.2 v 0 c -0.217,-0.144 -0.472,-0.29 -0.749,-0.431 v 0 c -0.598,0.185 -1.546,0.341 -3.05,0.405 v 0 c -0.948,0.049 -2.339,0.085 -3.827,0.111 v 0 c 0.022,0.021 0.048,0.039 0.069,0.06 v 0 c 0.211,0.217 0.285,0.471 0.04,0.727 v 0 l -2.912,-0.261 c 0.243,-0.113 0.284,-0.294 0.156,-0.491 v 0 c -2.728,0.029 -5.129,0.032 -5.129,0.032 v 0 c -2.932,0.107 -4.121,0.008 -5.328,-0.142 v 0 c 0.046,0.114 0.079,0.228 0.113,0.331 v 0 c 0.006,0.017 0.013,0.033 0.019,0.049 v 0 c -0.019,-0.013 -0.033,-0.022 -0.066,-0.036 v 0 c -0.074,-0.033 -0.175,-0.061 -0.295,-0.085 v 0 c -0.115,-0.027 -0.291,-0.047 -0.41,-0.057 v 0 c -0.103,-0.01 -0.215,-0.015 -0.324,-0.015 v 0 0.831 c -0.159,-0.002 -0.323,-0.009 -0.475,-0.021 v 0 c -0.17,-0.012 -0.389,-0.043 -0.552,-0.073 v 0 c -0.159,-0.033 -0.293,-0.073 -0.403,-0.116 v 0 c -0.086,-0.035 -0.135,-0.065 -0.186,-0.099 v 0 c -0.131,-0.112 -0.112,-0.174 -0.107,-0.217 v 0 c 0.022,-0.092 0.074,-0.15 0.118,-0.209 v 0 c 0.094,-0.114 0.185,-0.216 0.257,-0.32 v 0 c 0.053,-0.072 0.084,-0.146 0.119,-0.218 v 0 c -0.748,-0.07 -1.666,-0.136 -2.923,-0.182 v 0 c -5.647,-0.208 -3.534,-1.428 -5.578,-1.743 v 0 c -2.048,-0.31 0.478,-1.479 0.093,-3.35 v 0 c -0.382,-1.871 -7.676,-10.187 -9.208,-12.37 v 0 c -1.536,-2.182 2.301,-2.703 2.301,-2.703 v 0 c 0,0 11.514,-8.316 12.28,-9.667 v 0 c 0.769,-1.351 0.193,-5.665 -0.959,-6.184 v 0 l 1.535,-6.186 -7.675,6.341 c 0,0 -22.451,13.339 -23.475,13.895 v 0 c -1.025,0.554 -7.116,7.928 -7.271,8.73 v 0 c -0.724,3.778 3.433,7.901 4.455,8.456 v 0 c 1.026,0.554 8.704,3.936 8.704,3.936 v 0 c 0,0 3.807,2.109 -2.601,2.443 v 0 c 0.07,0.046 0.149,0.089 0.215,0.135 v 0 c 0.404,0.287 0.766,0.583 0.973,0.913 v 0 l -3.067,0.045 c 0.068,-0.238 0.004,-0.498 -0.117,-0.761 v 0 c -1.523,0.45 -3.894,1.246 -5.065,1.267 v 0 c -1.041,0.018 -3.202,-0.198 -5.367,-0.441 v 0 c 0.086,0.081 0.177,0.16 0.276,0.237 v 0 c 0.418,0.331 0.937,0.645 1.601,0.898 v 0 l -2.665,0.413 c -0.657,-0.393 -0.972,-0.784 -1.18,-1.171 v 0 c -0.114,-0.209 -0.173,-0.417 -0.204,-0.623 v 0 c -1.755,-0.204 -3.234,-0.375 -3.716,-0.38 v 0 c -2.426,-0.028 -3.492,-0.515 -4.424,-0.92 v 0 c 0.025,0.097 0.046,0.193 0.088,0.29 v 0 c 0.099,0.277 0.281,0.552 0.478,0.821 v 0 l -3.059,0.069 c 0.048,-0.302 0.12,-0.604 0.278,-0.901 v 0 c 0.127,-0.274 0.329,-0.543 0.554,-0.811 v 0 c -2.125,-0.479 -3.628,-0.644 -3.673,-1.118 v 0 c -0.038,-0.419 2.674,-2.571 2.162,-3.68 v 0 c -0.512,-1.109 0.429,-5.893 -3.985,-8.978 v 0 c -3.329,-2.325 -5.116,-3.465 -2.047,-5.268 v 0 c 3.071,-1.8 8.208,-5.819 9.211,-7.344 v 0 c 2.388,-3.628 2.31,-6.494 -0.154,-8.821 v 0 c -1.12,1.025 -2.214,2.051 -2.214,2.152 v 0 c 0,0.207 -3.406,-4.94 -3.406,-4.94 v 0 l -2.732,2.185 -2.91,-8.074 -3.999,1.055 0.575,-8.106 -3.837,0.519 2.965,-3.266 c -1.248,0.217 -2.524,0.428 -3.842,0.629 v 0 c -1.459,0.224 -2.965,0.442 -4.516,0.639 v 0 c -1.57,0.198 -3.164,0.388 -4.833,0.562 v 0 c -3.329,0.347 -6.882,0.635 -10.739,0.834 v 0 c -3.1,0.155 -6.412,0.259 -9.924,0.265 v 0 c -2.566,0.095 -5.107,0.133 -7.591,0.133 v 0 C 97.826,89.636 91.91,89.391 86.226,88.995 v 0 C 80.547,88.597 75.074,88.049 69.949,87.326 v 0 C 67.39,86.963 64.914,86.557 62.637,86.081 v 0 C 60.379,85.606 58.224,85.06 56.872,84.387 v 0 c 1.851,0.575 4.259,0.955 6.72,1.273 v 0 c 2.472,0.317 5.066,0.555 7.695,0.747 v 0 c 3.339,0.244 6.738,0.413 10.144,0.517 v 0 c -1.029,-0.185 -2.047,-0.375 -3.042,-0.572 v 0 C 77.568,86.178 76.746,86.001 75.94,85.821 v 0 C 75.129,85.64 74.321,85.46 73.574,85.26 v 0 c -0.071,-0.017 -0.135,-0.037 -0.206,-0.055 v 0 c -4.131,-0.512 -8.05,-1.116 -11.714,-1.81 v 0 c -2.316,-0.441 -4.529,-0.917 -6.566,-1.443 v 0 c -2.026,-0.524 -3.927,-1.1 -5.235,-1.76 v 0 c 1.809,0.564 4.034,0.993 6.344,1.369 v 0 c 2.314,0.374 4.741,0.693 7.218,0.969 v 0 c 0.614,0.068 1.231,0.134 1.849,0.197 v 0 C 63.663,82.301 62.141,81.86 60.72,81.401 v 0 C 55.705,79.78 51.827,77.968 48.941,76.079 v 0 c -2.867,-1.89 -4.748,-3.872 -5.368,-5.877 v 0 c -0.304,-1.001 -0.281,-2.008 0.186,-2.997 v 0 c 0.455,-0.988 1.459,-1.96 3.085,-2.83 v 0 c -1.061,0.934 -1.42,1.9 -1.263,2.853 v 0 c 0.146,0.953 0.721,1.897 1.588,2.813 v 0 c 1.421,1.49 3.604,2.914 6.32,4.241 v 0 c -0.096,-0.229 -0.182,-0.458 -0.246,-0.686 v 0 C 53.168,73.338 53.113,73.08 53.08,72.823 v 0 c -0.814,-1.911 -0.552,-3.815 0.55,-5.656 v 0 c 1.229,-2.018 3.472,-3.971 6.833,-5.764 v 0 c 1.685,-0.895 3.657,-1.75 5.974,-2.524 v 0 c 2.301,-0.776 5.042,-1.46 8.114,-1.97 v 0 c -2.715,0.643 -4.894,1.416 -6.611,2.249 v 0 c -1.726,0.833 -3.063,1.716 -4.104,2.619 v 0 c -0.265,0.233 -0.511,0.466 -0.74,0.702 v 0 c 0.55,-0.24 1.122,-0.479 1.727,-0.715 v 0 c 0.563,-0.216 1.086,-0.435 1.705,-0.644 v 0 l 1.869,-0.621 c 0.316,-0.103 0.62,-0.206 0.95,-0.305 v 0 l 1.02,-0.297 c 0.682,-0.195 1.362,-0.394 2.064,-0.581 v 0 c 2.942,-0.738 6.026,-1.435 9.53,-1.994 v 0 c 3.391,-0.589 7.174,-1.022 10.924,-1.378 v 0 c 0.96,-0.076 1.928,-0.146 2.888,-0.212 v 0 c 0.955,-0.068 1.931,-0.143 2.82,-0.178 v 0 c 0.906,-0.041 1.81,-0.083 2.712,-0.117 v 0 c 0.44,-0.02 0.911,-0.035 1.399,-0.046 v 0 l 1.439,-0.036 c 1.848,-0.056 3.944,-0.057 5.926,-0.048 v 0 c 1.055,0.015 2.117,0.039 3.157,0.064 v 0 l 0.78,0.021 0.823,0.034 1.629,0.082 c 0.546,0.03 1.057,0.052 1.619,0.094 v 0 l 1.655,0.124 c 0.547,0.045 1.081,0.088 1.624,0.137 v 0 c 0.551,0.058 1.094,0.119 1.632,0.18 v 0 c 0.536,0.061 1.067,0.122 1.591,0.191 v 0 c 0.527,0.075 1.047,0.151 1.559,0.229 v 0 c 0.509,0.079 1.019,0.153 1.507,0.241 v 0 c 0.488,0.089 0.963,0.182 1.43,0.279 v 0 c 3.748,0.755 6.498,1.735 8.101,2.697 v 0 c 1.628,0.966 2.31,1.912 2.515,2.802 v 0 c 0.192,0.889 -0.11,1.73 -0.743,2.532 v 0 c -0.664,0.805 -1.547,1.573 -2.946,2.289 v 0 c -1.517,-0.69 -2.974,-1.327 -4.593,-1.907 v 0 c -1.58,-0.581 -3.213,-1.106 -4.918,-1.527 v 0 c -1.682,-0.422 -3.43,-0.736 -4.98,-0.884 v 0 c -1.571,-0.153 -2.858,-0.113 -3.745,0.007 v 0 c -0.897,0.12 -1.528,0.291 -2.384,0.469 v 0 l -3.105,0.653 -0.452,0.094 c -0.144,0.03 -0.299,0.062 -0.471,0.102 v 0 c -0.327,0.078 -0.656,0.148 -0.982,0.217 v 0 c -0.36,0.066 -0.561,0.142 -0.802,0.211 v 0 l -0.698,0.202 c -0.856,0.291 -1.614,0.561 -2.238,0.871 v 0 c -0.651,0.29 -1.173,0.614 -1.678,0.929 v 0 c -0.451,0.337 -0.911,0.659 -1.231,1.022 v 0 c -0.396,0.343 -0.59,0.724 -0.851,1.086 v 0 c -0.168,0.382 -0.358,0.755 -0.386,1.14 v 0 c -0.104,0.762 0.027,1.53 0.546,2.233 v 0 c 0.497,0.708 1.233,1.353 2.141,1.909 v 0 c 0.956,0.548 2.023,1.008 3.286,1.432 v 0 c 0.133,0.061 0.321,0.106 0.5,0.155 v 0 c 0.176,0.049 0.338,0.103 0.501,0.158 v 0 c 0.169,0.053 0.387,0.092 0.57,0.144 v 0 c 0.193,0.049 0.363,0.106 0.562,0.155 v 0 c 0.219,0.043 0.438,0.089 0.645,0.142 v 0 c 0.144,0.027 0.271,0.062 0.409,0.096 v 0 c -1.706,-0.507 -3.149,-1.079 -4.166,-1.7 v 0 c -0.69,-0.432 -1.181,-0.882 -1.466,-1.336 v 0 c -0.232,-0.456 -0.353,-0.912 -0.172,-1.361 v 0 c 0.266,-0.895 1.373,-1.736 2.838,-2.493 v 0 c -0.91,0.822 -1.359,1.674 -1.014,2.492 v 0 c 0.122,0.409 0.528,0.803 0.997,1.179 v 0 c 0.524,0.373 1.202,0.723 2.012,1.044 v 0 c 1.657,0.637 3.845,1.148 6.291,1.54 v 0 c 2.468,0.386 5.182,0.657 7.986,0.845 v 0 c 2.466,0.162 5.005,0.26 7.568,0.31 v 0 c 2.199,-0.122 4.444,-0.273 6.713,-0.448 v 0 c 4.187,-0.325 8.42,-0.738 12.596,-1.231 v 0 c 0.661,-0.08 1.32,-0.161 1.976,-0.244 v 0 l -5.992,-0.432 8.467,-2 c 0.079,-0.063 0.146,-0.125 0.227,-0.188 v 0 l -5.864,0.46 c 0,0 11.065,-3.787 11.833,-3.926 v 0 c 0.009,-0.002 0.005,-0.004 0.013,-0.005 v 0 c 0.016,-0.007 0.028,-0.013 0.044,-0.018 v 0 c -0.132,-0.09 -5.237,0.068 -5.237,0.068 v 0 l 14.693,-3.61 c 0,0 -2.606,0.068 -4.396,-0.409 v 0 c 1.791,-0.417 18.842,-2.306 18.842,-2.306 v 0 h -0.002 c 31.163,-4.118 86.015,-3.898 91.31,-3.464 v 0 c 1.853,0.152 6.322,-0.074 11.769,-0.508 v 0 l -3.777,-0.373 13.684,-0.673 -3.254,-0.758 c 0,0 10.174,-0.51 10.336,-0.513 v 0 C 306.407,56.343 303.649,55.1 303.649,55.1 v 0 l 11.387,0.06 -1.151,-1.23 9.063,0.413 c 0.03,-0.016 0.062,-0.032 0.085,-0.049 v 0 c 0,0 -4.222,-6.393 -4.03,-7.173 v 0 c 0.189,-0.775 14.525,1.239 26.004,2.897 v 0 c -0.42,-0.233 -0.962,-0.506 -0.962,-0.506 v 0 h 2.782 l -1.439,-0.397 c 0,0 5.242,0.075 5.277,-0.096 v 0 c 0.036,-0.172 -2.591,-0.442 -2.591,-0.573 v 0 c 0,-0.064 1.475,0.021 3.084,0.105 v 0 c 1.654,0.09 3.448,0.179 3.921,0.103 v 0 c 0.928,-0.148 -0.864,-0.441 -3.742,-1.168 v 0 c 2.705,-0.069 6.701,0.43 9.228,0.797 v 0 c 0.386,-0.025 0.768,-0.05 1.157,-0.075 v 0 c -0.203,-0.485 -0.641,-1.105 -1.606,-1.464 v 0 c 2.075,0.059 5.213,0.435 7.353,1.01 v 0 c -0.028,-1.131 1.938,-2.088 2.578,-2.088 v 0 c -0.71,0.469 -0.101,1.427 2.422,2.074 v 0 c 0.402,-0.011 0.802,-0.02 1.203,-0.03 v 0 c 1.781,-0.519 5.733,-1.587 8.842,-1.769 v 0 c -1.944,0.928 -3.33,1.354 -2.282,1.42 v 0 c 0.511,0.029 2.016,-0.179 3.446,-0.388 v 0 c 1.51,-0.222 2.936,-0.442 3.011,-0.378 v 0 c 0.143,0.124 -2.064,0.596 -1.843,0.757 v 0 c 0.223,0.158 5.144,-0.338 5.144,-0.338 v 0 l -0.935,0.496 2.655,-0.225 c 0,0 -0.243,0.342 -0.385,0.606 v 0 c 0.685,0.036 1.354,0.075 2.005,0.12 v 0 c 2.071,-0.718 5.827,-1.199 8.194,-1.267 v 0 c -0.984,0.367 -1.423,1.007 -1.617,1.495 v 0 c 7.741,-1.747 17.783,-4.054 20.279,-3.613 v 0 c 2.631,0.468 10.498,7.693 10.692,13.202 v 0 c 0.451,0.111 0.997,0.289 1.615,0.521 v 0 c 4.664,0.521 12.753,1.478 14.504,2.026 v 0 c -2.407,-0.1 -9.899,-0.24 -9.972,-0.024 v 0 c 0.041,0.02 0.084,0.043 0.128,0.062 v 0 c 1.605,0.511 19.266,4.899 19.823,5.078 v 0 c -5.565,-0.802 -10.748,-0.722 -9.402,-0.269 v 0 c 1.342,0.454 8.059,1.806 8.059,1.806 v 0 c 0,0 -3.553,-0.174 -7.161,-0.251 v 0 c 1.893,1.242 3.131,2.234 3.131,2.641 v 0 c 0,0.12 -1.641,-0.001 -3.442,-0.122 v 0 c -2.118,-0.142 -4.459,-0.284 -4.618,-0.036 v 0 c -0.254,0.398 5.081,2.361 4.542,2.862 v 0 c -1.919,-0.107 -6.016,-0.12 -6.844,0.414 v 0 c -1.07,0.688 3.768,2.061 2.07,2.78 v 0 c -3.287,-0.181 -7.879,-0.259 -9.939,0.339 v 0 c -2.059,0.597 0.405,2.26 -2.303,2.772 v 0 c -16.31,3.082 -20.341,12.717 -26.864,15.107 v 0 c -6.526,2.391 -12.666,7.172 -12.666,7.172 v 0 4.47 c 0,0 -1.81,21.517 -2.058,22.869 v 0 c -0.245,1.352 7.431,6.237 12.037,7.484 v 0 c 4.605,1.248 13.047,1.664 13.047,1.664 v 0 l 6.782,3.5 c 0,0 0.865,0.293 -0.03,0.607 v 0 c 0.017,0.012 0.033,0.019 0.051,0.03 v 0 c 0.414,0.285 0.634,0.622 0.466,0.961 v 0 l -3.022,-0.149 c 0.154,-0.135 0.174,-0.285 0.097,-0.441 v 0 c -0.82,0.077 -1.862,0.147 -3.191,0.203 v 0 c -5.463,0.231 -9.612,-0.276 -12.758,-0.579 v 0 c -0.033,0.062 -0.059,0.127 -0.115,0.191 v 0 l -2.911,-0.264 c 0.075,-0.038 0.135,-0.083 0.196,-0.125 v 0 c -0.413,-0.009 -0.805,-0.008 -1.171,0.016 v 0 c -3.326,0.208 -14.065,-0.558 -17.399,-1.318 v 0 c -8.059,-1.836 -5.5,-3.57 -7.547,-5.509 v 0 c -2.048,-1.94 -1.791,-2.703 -1.791,-2.703 v 0 c 0,0 -3.071,-0.136 -4.094,-2.147 v 0 c -0.831,-1.631 -8.907,-15.207 -12.126,-20.489 v 0 c -0.131,-0.216 -0.711,-0.178 -1.254,-0.141 v 0 c -0.478,0.033 -0.927,0.066 -1.014,-0.075 v 0 c -0.376,-0.608 1.009,-1.817 0.961,-1.871 v 0 c -0.385,-0.414 -5.372,0.989 -5.372,0.989 v 0 l 1.918,-2.547 c 0,0 -1.823,0.078 -3.55,0.18 v 0 c -0.768,-0.518 3.165,-3.558 3.55,-4.806 v 0 c 0,0 -25.715,2.184 -28.401,3.327 v 0 c -2.687,1.143 -2.303,20.373 -0.769,21.622 v 0 c 1.537,1.247 -3.068,2.909 -3.068,2.909 v 0 c 0,0 -1.153,3.431 0,4.158 v 0 c 1.15,0.728 6.907,4.678 6.907,4.678 v 0 c 0,0 3.851,2.259 5.502,2.911 v 0 c 1.118,0.442 1.919,1.646 -0.129,1.837 v 0 c -1.546,0.143 -3.593,0.566 -5.161,0.591 v 0 c 0.118,0.218 0.144,0.448 -0.008,0.692 v 0 l -2.965,-0.213 c 0.021,-0.014 0.029,-0.03 0.047,-0.043 v 0 c -1.813,0.537 -3.719,0.53 -10.746,-0.285 v 0 c 0.019,0.018 0.035,0.035 0.056,0.053 v 0 c 0.382,0.305 0.875,0.59 1.497,0.827 v 0 l -2.666,0.412 c -0.606,-0.369 -0.91,-0.743 -1.083,-1.109"
         id="path8707" />
    </clipPath>
    <clipPath
       clipPathUnits="userSpaceOnUse"
       id="clipPath8719">
      <path
         d="M 43.788017,33.225463 40.717002,144.5513 456.86399,156.03106 459.935,44.705223 Z"
         id="path8717" />
    </clipPath>
    <linearGradient
       x1="0"
       y1="0"
       x2="1"
       y2="0"
       gradientUnits="userSpaceOnUse"
       gradientTransform="matrix(-3.0703001,111.2999,111.2999,3.0703001,251.44851,28.76148)"
       spreadMethod="pad"
       id="linearGradient8725">
      <stop
         style="stop-opacity:1;stop-color:#ffffff"
         offset="0"
         id="stop8721" />
      <stop
         style="stop-opacity:1;stop-color:#231f20"
         offset="1"
         id="stop8723" />
    </linearGradient>
    <clipPath
       clipPathUnits="userSpaceOnUse"
       id="clipPath8735">
      <path
         d="M 0,600 H 600 V 0 H 0 Z"
         id="path8733" />
    </clipPath>
  </defs>
  <sodipodi:namedview
     id="namedview8695"
     pagecolor="#ffffff"
     bordercolor="#000000"
     borderopacity="0.25"
     inkscape:showpageshadow="2"
     inkscape:pageopacity="0.0"
     inkscape:pagecheckerboard="0"
     inkscape:deskcolor="#d1d1d1"
     showgrid="false"
     inkscape:zoom="1.04625"
     inkscape:cx="400"
     inkscape:cy="400.4779"
     inkscape:window-width="1920"
     inkscape:window-height="1017"
     inkscape:window-x="-8"
     inkscape:window-y="-8"
     inkscape:window-maximized="1"
     inkscape:current-layer="g8701">
    <inkscape:page
       x="0"
       y="0"
       id="page8699"
       width="800"
       height="800" />
  </sodipodi:namedview>
  <g
     id="g8701"
     inkscape:groupmode="layer"
     inkscape:label="Page 1"
     transform="matrix(1.3333333,0,0,-1.3333333,0,800)">
    <g
       id="g8703">
      <g
         id="g8705"
         clip-path="url(#clipPath8709)">
        <g
           id="g8711">
          <g
             id="g8713">
            <g
               id="g8715"
               clip-path="url(#clipPath8719)">
              <path
                 d="m 310.254,143.073 c -0.068,-0.153 -0.101,-0.303 -0.119,-0.455 v 0 c -0.198,-0.026 -0.393,-0.048 -0.599,-0.073 v 0 c -2.637,0.134 -5.502,-0.257 -7.942,-0.697 v 0 c 0.039,0.185 0.112,0.364 0.253,0.536 v 0 c 0.247,0.318 0.66,0.613 1.261,0.838 v 0 l -2.664,0.413 c -0.666,-0.399 -0.871,-0.806 -0.889,-1.191 v 0 c -0.021,-0.317 0.13,-0.621 0.338,-0.917 v 0 c -1.527,-0.304 -2.769,-0.574 -3.492,-0.648 v 0 c -2.012,-0.208 -0.17,-4.761 -0.17,-4.761 v 0 c 3.965,-2.252 -0.256,-7.449 0.51,-11.849 v 0 c 0.27,-1.542 -6.139,-13.272 -8.06,-14.051 v 0 c -1.918,-0.78 -7.674,-9.824 -7.674,-9.824 v 0 c -1.928,0.03 -4.127,0.676 -5.086,1.301 v 0 c -1.387,-0.025 -4.191,-1.398 -4.51,-1.378 v 0 c -1.16,0.073 -3.646,0.442 -4.125,1.013 v 0 c -1.789,-0.137 -7.393,-1.848 -9.164,-2.016 v 0 c -0.176,-0.016 -0.351,-0.035 -0.528,-0.051 v 0 c -3.045,5.427 -23.832,14.82 -29.617,17.267 v 0 c -6.139,2.599 -9.878,7.392 -9.734,8.395 v 0 c 0.205,1.421 0.829,8.682 4.812,9.459 v 0 c 0,0 5.5,2.429 8.571,2.429 v 0 c 3.071,0 5.621,1.782 5.621,1.782 v 0 c 0,0 0.15,0.189 0.024,0.426 v 0 c 0.711,0.222 1.357,0.463 1.917,0.721 v 0 c 0.939,0.423 1.452,0.907 1.803,1.402 v 0 l -3.061,0.066 c -0.068,-0.4 -0.23,-0.813 -0.818,-1.2 v 0 c -0.217,-0.144 -0.472,-0.29 -0.749,-0.431 v 0 c -0.598,0.185 -1.546,0.341 -3.05,0.405 v 0 c -0.948,0.049 -2.339,0.085 -3.827,0.111 v 0 c 0.022,0.021 0.048,0.039 0.069,0.06 v 0 c 0.211,0.217 0.285,0.471 0.04,0.727 v 0 l -2.912,-0.261 c 0.243,-0.113 0.284,-0.294 0.156,-0.491 v 0 c -2.728,0.029 -5.129,0.032 -5.129,0.032 v 0 c -2.932,0.107 -4.121,0.008 -5.328,-0.142 v 0 c 0.046,0.114 0.079,0.228 0.113,0.331 v 0 c 0.006,0.017 0.013,0.033 0.019,0.049 v 0 c -0.019,-0.013 -0.033,-0.022 -0.066,-0.036 v 0 c -0.074,-0.033 -0.175,-0.061 -0.295,-0.085 v 0 c -0.115,-0.027 -0.291,-0.047 -0.41,-0.057 v 0 c -0.103,-0.01 -0.215,-0.015 -0.324,-0.015 v 0 0.831 c -0.159,-0.002 -0.323,-0.009 -0.475,-0.021 v 0 c -0.17,-0.012 -0.389,-0.043 -0.552,-0.073 v 0 c -0.159,-0.033 -0.293,-0.073 -0.403,-0.116 v 0 c -0.086,-0.035 -0.135,-0.065 -0.186,-0.099 v 0 c -0.131,-0.112 -0.112,-0.174 -0.107,-0.217 v 0 c 0.022,-0.092 0.074,-0.15 0.118,-0.209 v 0 c 0.094,-0.114 0.185,-0.216 0.257,-0.32 v 0 c 0.053,-0.072 0.084,-0.146 0.119,-0.218 v 0 c -0.748,-0.07 -1.666,-0.136 -2.923,-0.182 v 0 c -5.647,-0.208 -3.534,-1.428 -5.578,-1.743 v 0 c -2.048,-0.31 0.478,-1.479 0.093,-3.35 v 0 c -0.382,-1.871 -7.676,-10.187 -9.208,-12.37 v 0 c -1.536,-2.182 2.301,-2.703 2.301,-2.703 v 0 c 0,0 11.514,-8.316 12.28,-9.667 v 0 c 0.769,-1.351 0.193,-5.665 -0.959,-6.184 v 0 l 1.535,-6.186 -7.675,6.341 c 0,0 -22.451,13.339 -23.475,13.895 v 0 c -1.025,0.554 -7.116,7.928 -7.271,8.73 v 0 c -0.724,3.778 3.433,7.901 4.455,8.456 v 0 c 1.026,0.554 8.704,3.936 8.704,3.936 v 0 c 0,0 3.807,2.109 -2.601,2.443 v 0 c 0.07,0.046 0.149,0.089 0.215,0.135 v 0 c 0.404,0.287 0.766,0.583 0.973,0.913 v 0 l -3.067,0.045 c 0.068,-0.238 0.004,-0.498 -0.117,-0.761 v 0 c -1.523,0.45 -3.894,1.246 -5.065,1.267 v 0 c -1.041,0.018 -3.202,-0.198 -5.367,-0.441 v 0 c 0.086,0.081 0.177,0.16 0.276,0.237 v 0 c 0.418,0.331 0.937,0.645 1.601,0.898 v 0 l -2.665,0.413 c -0.657,-0.393 -0.972,-0.784 -1.18,-1.171 v 0 c -0.114,-0.209 -0.173,-0.417 -0.204,-0.623 v 0 c -1.755,-0.204 -3.234,-0.375 -3.716,-0.38 v 0 c -2.426,-0.028 -3.492,-0.515 -4.424,-0.92 v 0 c 0.025,0.097 0.046,0.193 0.088,0.29 v 0 c 0.099,0.277 0.281,0.552 0.478,0.821 v 0 l -3.059,0.069 c 0.048,-0.302 0.12,-0.604 0.278,-0.901 v 0 c 0.127,-0.274 0.329,-0.543 0.554,-0.811 v 0 c -2.125,-0.479 -3.628,-0.644 -3.673,-1.118 v 0 c -0.038,-0.419 2.674,-2.571 2.162,-3.68 v 0 c -0.512,-1.109 0.429,-5.893 -3.985,-8.978 v 0 c -3.329,-2.325 -5.116,-3.465 -2.047,-5.268 v 0 c 3.071,-1.8 8.208,-5.819 9.211,-7.344 v 0 c 2.388,-3.628 2.31,-6.494 -0.154,-8.821 v 0 c -1.12,1.025 -2.214,2.051 -2.214,2.152 v 0 c 0,0.207 -3.406,-4.94 -3.406,-4.94 v 0 l -2.732,2.185 -2.91,-8.074 -3.999,1.055 0.575,-8.106 -3.837,0.519 2.965,-3.266 c -1.248,0.217 -2.524,0.428 -3.842,0.629 v 0 c -1.459,0.224 -2.965,0.442 -4.516,0.639 v 0 c -1.57,0.198 -3.164,0.388 -4.833,0.562 v 0 c -3.329,0.347 -6.882,0.635 -10.739,0.834 v 0 c -3.1,0.155 -6.412,0.259 -9.924,0.265 v 0 c -2.566,0.095 -5.107,0.133 -7.591,0.133 v 0 C 97.826,89.636 91.91,89.391 86.226,88.995 v 0 C 80.547,88.597 75.074,88.049 69.949,87.326 v 0 C 67.39,86.963 64.914,86.557 62.637,86.081 v 0 C 60.379,85.606 58.224,85.06 56.872,84.387 v 0 c 1.851,0.575 4.259,0.955 6.72,1.273 v 0 c 2.472,0.317 5.066,0.555 7.695,0.747 v 0 c 3.339,0.244 6.738,0.413 10.144,0.517 v 0 c -1.029,-0.185 -2.047,-0.375 -3.042,-0.572 v 0 C 77.568,86.178 76.746,86.001 75.94,85.821 v 0 C 75.129,85.64 74.321,85.46 73.574,85.26 v 0 c -0.071,-0.017 -0.135,-0.037 -0.206,-0.055 v 0 c -4.131,-0.512 -8.05,-1.116 -11.714,-1.81 v 0 c -2.316,-0.441 -4.529,-0.917 -6.566,-1.443 v 0 c -2.026,-0.524 -3.927,-1.1 -5.235,-1.76 v 0 c 1.809,0.564 4.034,0.993 6.344,1.369 v 0 c 2.314,0.374 4.741,0.693 7.218,0.969 v 0 c 0.614,0.068 1.231,0.134 1.849,0.197 v 0 C 63.663,82.301 62.141,81.86 60.72,81.401 v 0 C 55.705,79.78 51.827,77.968 48.941,76.079 v 0 c -2.867,-1.89 -4.748,-3.872 -5.368,-5.877 v 0 c -0.304,-1.001 -0.281,-2.008 0.186,-2.997 v 0 c 0.455,-0.988 1.459,-1.96 3.085,-2.83 v 0 c -1.061,0.934 -1.42,1.9 -1.263,2.853 v 0 c 0.146,0.953 0.721,1.897 1.588,2.813 v 0 c 1.421,1.49 3.604,2.914 6.32,4.241 v 0 c -0.096,-0.229 -0.182,-0.458 -0.246,-0.686 v 0 C 53.168,73.338 53.113,73.08 53.08,72.823 v 0 c -0.814,-1.911 -0.552,-3.815 0.55,-5.656 v 0 c 1.229,-2.018 3.472,-3.971 6.833,-5.764 v 0 c 1.685,-0.895 3.657,-1.75 5.974,-2.524 v 0 c 2.301,-0.776 5.042,-1.46 8.114,-1.97 v 0 c -2.715,0.643 -4.894,1.416 -6.611,2.249 v 0 c -1.726,0.833 -3.063,1.716 -4.104,2.619 v 0 c -0.265,0.233 -0.511,0.466 -0.74,0.702 v 0 c 0.55,-0.24 1.122,-0.479 1.727,-0.715 v 0 c 0.563,-0.216 1.086,-0.435 1.705,-0.644 v 0 l 1.869,-0.621 c 0.316,-0.103 0.62,-0.206 0.95,-0.305 v 0 l 1.02,-0.297 c 0.682,-0.195 1.362,-0.394 2.064,-0.581 v 0 c 2.942,-0.738 6.026,-1.435 9.53,-1.994 v 0 c 3.391,-0.589 7.174,-1.022 10.924,-1.378 v 0 c 0.96,-0.076 1.928,-0.146 2.888,-0.212 v 0 c 0.955,-0.068 1.931,-0.143 2.82,-0.178 v 0 c 0.906,-0.041 1.81,-0.083 2.712,-0.117 v 0 c 0.44,-0.02 0.911,-0.035 1.399,-0.046 v 0 l 1.439,-0.036 c 1.848,-0.056 3.944,-0.057 5.926,-0.048 v 0 c 1.055,0.015 2.117,0.039 3.157,0.064 v 0 l 0.78,0.021 0.823,0.034 1.629,0.082 c 0.546,0.03 1.057,0.052 1.619,0.094 v 0 l 1.655,0.124 c 0.547,0.045 1.081,0.088 1.624,0.137 v 0 c 0.551,0.058 1.094,0.119 1.632,0.18 v 0 c 0.536,0.061 1.067,0.122 1.591,0.191 v 0 c 0.527,0.075 1.047,0.151 1.559,0.229 v 0 c 0.509,0.079 1.019,0.153 1.507,0.241 v 0 c 0.488,0.089 0.963,0.182 1.43,0.279 v 0 c 3.748,0.755 6.498,1.735 8.101,2.697 v 0 c 1.628,0.966 2.31,1.912 2.515,2.802 v 0 c 0.192,0.889 -0.11,1.73 -0.743,2.532 v 0 c -0.664,0.805 -1.547,1.573 -2.946,2.289 v 0 c -1.517,-0.69 -2.974,-1.327 -4.593,-1.907 v 0 c -1.58,-0.581 -3.213,-1.106 -4.918,-1.527 v 0 c -1.682,-0.422 -3.43,-0.736 -4.98,-0.884 v 0 c -1.571,-0.153 -2.858,-0.113 -3.745,0.007 v 0 c -0.897,0.12 -1.528,0.291 -2.384,0.469 v 0 l -3.105,0.653 -0.452,0.094 c -0.144,0.03 -0.299,0.062 -0.471,0.102 v 0 c -0.327,0.078 -0.656,0.148 -0.982,0.217 v 0 c -0.36,0.066 -0.561,0.142 -0.802,0.211 v 0 l -0.698,0.202 c -0.856,0.291 -1.614,0.561 -2.238,0.871 v 0 c -0.651,0.29 -1.173,0.614 -1.678,0.929 v 0 c -0.451,0.337 -0.911,0.659 -1.231,1.022 v 0 c -0.396,0.343 -0.59,0.724 -0.851,1.086 v 0 c -0.168,0.382 -0.358,0.755 -0.386,1.14 v 0 c -0.104,0.762 0.027,1.53 0.546,2.233 v 0 c 0.497,0.708 1.233,1.353 2.141,1.909 v 0 c 0.956,0.548 2.023,1.008 3.286,1.432 v 0 c 0.133,0.061 0.321,0.106 0.5,0.155 v 0 c 0.176,0.049 0.338,0.103 0.501,0.158 v 0 c 0.169,0.053 0.387,0.092 0.57,0.144 v 0 c 0.193,0.049 0.363,0.106 0.562,0.155 v 0 c 0.219,0.043 0.438,0.089 0.645,0.142 v 0 c 0.144,0.027 0.271,0.062 0.409,0.096 v 0 c -1.706,-0.507 -3.149,-1.079 -4.166,-1.7 v 0 c -0.69,-0.432 -1.181,-0.882 -1.466,-1.336 v 0 c -0.232,-0.456 -0.353,-0.912 -0.172,-1.361 v 0 c 0.266,-0.895 1.373,-1.736 2.838,-2.493 v 0 c -0.91,0.822 -1.359,1.674 -1.014,2.492 v 0 c 0.122,0.409 0.528,0.803 0.997,1.179 v 0 c 0.524,0.373 1.202,0.723 2.012,1.044 v 0 c 1.657,0.637 3.845,1.148 6.291,1.54 v 0 c 2.468,0.386 5.182,0.657 7.986,0.845 v 0 c 2.466,0.162 5.005,0.26 7.568,0.31 v 0 c 2.199,-0.122 4.444,-0.273 6.713,-0.448 v 0 c 4.187,-0.325 8.42,-0.738 12.596,-1.231 v 0 c 0.661,-0.08 1.32,-0.161 1.976,-0.244 v 0 l -5.992,-0.432 8.467,-2 c 0.079,-0.063 0.146,-0.125 0.227,-0.188 v 0 l -5.864,0.46 c 0,0 11.065,-3.787 11.833,-3.926 v 0 c 0.009,-0.002 0.005,-0.004 0.013,-0.005 v 0 c 0.016,-0.007 0.028,-0.013 0.044,-0.018 v 0 c -0.132,-0.09 -5.237,0.068 -5.237,0.068 v 0 l 14.693,-3.61 c 0,0 -2.606,0.068 -4.396,-0.409 v 0 c 1.791,-0.417 18.842,-2.306 18.842,-2.306 v 0 h -0.002 c 31.163,-4.118 86.015,-3.898 91.31,-3.464 v 0 c 1.853,0.152 6.322,-0.074 11.769,-0.508 v 0 l -3.777,-0.373 13.684,-0.673 -3.254,-0.758 c 0,0 10.174,-0.51 10.336,-0.513 v 0 C 306.407,56.343 303.649,55.1 303.649,55.1 v 0 l 11.387,0.06 -1.151,-1.23 9.063,0.413 c 0.03,-0.016 0.062,-0.032 0.085,-0.049 v 0 c 0,0 -4.222,-6.393 -4.03,-7.173 v 0 c 0.189,-0.775 14.525,1.239 26.004,2.897 v 0 c -0.42,-0.233 -0.962,-0.506 -0.962,-0.506 v 0 h 2.782 l -1.439,-0.397 c 0,0 5.242,0.075 5.277,-0.096 v 0 c 0.036,-0.172 -2.591,-0.442 -2.591,-0.573 v 0 c 0,-0.064 1.475,0.021 3.084,0.105 v 0 c 1.654,0.09 3.448,0.179 3.921,0.103 v 0 c 0.928,-0.148 -0.864,-0.441 -3.742,-1.168 v 0 c 2.705,-0.069 6.701,0.43 9.228,0.797 v 0 c 0.386,-0.025 0.768,-0.05 1.157,-0.075 v 0 c -0.203,-0.485 -0.641,-1.105 -1.606,-1.464 v 0 c 2.075,0.059 5.213,0.435 7.353,1.01 v 0 c -0.028,-1.131 1.938,-2.088 2.578,-2.088 v 0 c -0.71,0.469 -0.101,1.427 2.422,2.074 v 0 c 0.402,-0.011 0.802,-0.02 1.203,-0.03 v 0 c 1.781,-0.519 5.733,-1.587 8.842,-1.769 v 0 c -1.944,0.928 -3.33,1.354 -2.282,1.42 v 0 c 0.511,0.029 2.016,-0.179 3.446,-0.388 v 0 c 1.51,-0.222 2.936,-0.442 3.011,-0.378 v 0 c 0.143,0.124 -2.064,0.596 -1.843,0.757 v 0 c 0.223,0.158 5.144,-0.338 5.144,-0.338 v 0 l -0.935,0.496 2.655,-0.225 c 0,0 -0.243,0.342 -0.385,0.606 v 0 c 0.685,0.036 1.354,0.075 2.005,0.12 v 0 c 2.071,-0.718 5.827,-1.199 8.194,-1.267 v 0 c -0.984,0.367 -1.423,1.007 -1.617,1.495 v 0 c 7.741,-1.747 17.783,-4.054 20.279,-3.613 v 0 c 2.631,0.468 10.498,7.693 10.692,13.202 v 0 c 0.451,0.111 0.997,0.289 1.615,0.521 v 0 c 4.664,0.521 12.753,1.478 14.504,2.026 v 0 c -2.407,-0.1 -9.899,-0.24 -9.972,-0.024 v 0 c 0.041,0.02 0.084,0.043 0.128,0.062 v 0 c 1.605,0.511 19.266,4.899 19.823,5.078 v 0 c -5.565,-0.802 -10.748,-0.722 -9.402,-0.269 v 0 c 1.342,0.454 8.059,1.806 8.059,1.806 v 0 c 0,0 -3.553,-0.174 -7.161,-0.251 v 0 c 1.893,1.242 3.131,2.234 3.131,2.641 v 0 c 0,0.12 -1.641,-0.001 -3.442,-0.122 v 0 c -2.118,-0.142 -4.459,-0.284 -4.618,-0.036 v 0 c -0.254,0.398 5.081,2.361 4.542,2.862 v 0 c -1.919,-0.107 -6.016,-0.12 -6.844,0.414 v 0 c -1.07,0.688 3.768,2.061 2.07,2.78 v 0 c -3.287,-0.181 -7.879,-0.259 -9.939,0.339 v 0 c -2.059,0.597 0.405,2.26 -2.303,2.772 v 0 c -16.31,3.082 -20.341,12.717 -26.864,15.107 v 0 c -6.526,2.391 -12.666,7.172 -12.666,7.172 v 0 4.47 c 0,0 -1.81,21.517 -2.058,22.869 v 0 c -0.245,1.352 7.431,6.237 12.037,7.484 v 0 c 4.605,1.248 13.047,1.664 13.047,1.664 v 0 l 6.782,3.5 c 0,0 0.865,0.293 -0.03,0.607 v 0 c 0.017,0.012 0.033,0.019 0.051,0.03 v 0 c 0.414,0.285 0.634,0.622 0.466,0.961 v 0 l -3.022,-0.149 c 0.154,-0.135 0.174,-0.285 0.097,-0.441 v 0 c -0.82,0.077 -1.862,0.147 -3.191,0.203 v 0 c -5.463,0.231 -9.612,-0.276 -12.758,-0.579 v 0 c -0.033,0.062 -0.059,0.127 -0.115,0.191 v 0 l -2.911,-0.264 c 0.075,-0.038 0.135,-0.083 0.196,-0.125 v 0 c -0.413,-0.009 -0.805,-0.008 -1.171,0.016 v 0 c -3.326,0.208 -14.065,-0.558 -17.399,-1.318 v 0 c -8.059,-1.836 -5.5,-3.57 -7.547,-5.509 v 0 c -2.048,-1.94 -1.791,-2.703 -1.791,-2.703 v 0 c 0,0 -3.071,-0.136 -4.094,-2.147 v 0 c -0.831,-1.631 -8.907,-15.207 -12.126,-20.489 v 0 c -0.131,-0.216 -0.711,-0.178 -1.254,-0.141 v 0 c -0.478,0.033 -0.927,0.066 -1.014,-0.075 v 0 c -0.376,-0.608 1.009,-1.817 0.961,-1.871 v 0 c -0.385,-0.414 -5.372,0.989 -5.372,0.989 v 0 l 1.918,-2.547 c 0,0 -1.823,0.078 -3.55,0.18 v 0 c -0.768,-0.518 3.165,-3.558 3.55,-4.806 v 0 c 0,0 -25.715,2.184 -28.401,3.327 v 0 c -2.687,1.143 -2.303,20.373 -0.769,21.622 v 0 c 1.537,1.247 -3.068,2.909 -3.068,2.909 v 0 c 0,0 -1.153,3.431 0,4.158 v 0 c 1.15,0.728 6.907,4.678 6.907,4.678 v 0 c 0,0 3.851,2.259 5.502,2.911 v 0 c 1.118,0.442 1.919,1.646 -0.129,1.837 v 0 c -1.546,0.143 -3.593,0.566 -5.161,0.591 v 0 c 0.118,0.218 0.144,0.448 -0.008,0.692 v 0 l -2.965,-0.213 c 0.021,-0.014 0.029,-0.03 0.047,-0.043 v 0 c -1.813,0.537 -3.719,0.53 -10.746,-0.285 v 0 c 0.019,0.018 0.035,0.035 0.056,0.053 v 0 c 0.382,0.305 0.875,0.59 1.497,0.827 v 0 l -2.666,0.412 c -0.606,-0.369 -0.91,-0.743 -1.083,-1.109"
                 style="fill:url(#linearGradient8725);stroke:none"
                 id="path8727" />
            </g>
          </g>
        </g>
      </g>
    </g>
    <g
       id="g8729">
      <g
         id="g8731"
         clip-path="url(#clipPath8735)">
        <g
           id="g8737"
           transform="translate(563.3438,379.0996)">
          <path
             d="m 0,0 c 0,111.268 -90.2,201.468 -201.468,201.468 -100.512,0 -183.823,-73.607 -198.993,-169.856 l 10.868,9.856 c 0,0 -2.606,-0.256 -4.394,1.515 1.791,1.535 18.839,8.518 18.839,8.518 L -375.15,51.5 c 31.165,15.199 86.017,14.388 91.31,12.784 1.853,-0.562 6.323,0.279 11.765,1.88 l -3.774,1.372 13.686,2.485 -3.254,2.802 c 0,0 10.394,1.923 10.337,1.894 -0.057,-0.028 -2.854,4.63 -2.854,4.63 l 11.386,-0.223 -1.151,4.541 9.049,-1.524 c 0.03,0.058 0.077,0.121 0.098,0.178 0,0 -4.222,23.606 -4.03,26.484 0.19,2.861 14.527,-4.573 26.005,-10.692 -0.42,0.858 -0.962,1.865 -0.962,1.865 h 2.782 l -1.439,1.465 c 0,0 5.242,-0.274 5.277,0.358 0.035,0.632 -2.591,1.631 -2.591,2.111 0,0.48 6.076,-1.313 7.004,-0.767 0.929,0.545 -0.863,1.63 -3.741,4.317 2.704,0.246 6.701,-1.593 9.229,-2.948 0.383,0.094 0.766,0.189 1.156,0.279 -0.202,1.786 -0.641,4.082 -1.606,5.404 2.072,-0.215 5.213,-1.603 7.353,-3.726 -0.027,4.175 1.938,7.707 2.578,7.707 -0.709,-1.733 -0.1,-5.274 2.423,-7.655 0.401,0.039 0.8,0.074 1.202,0.107 1.781,1.925 5.734,5.859 8.842,6.531 -1.944,-3.424 -3.33,-4.996 -2.281,-5.239 1.049,-0.243 6.312,3.284 6.455,2.826 0.144,-0.458 -2.064,-2.196 -1.841,-2.788 0.222,-0.593 5.143,1.234 5.143,1.234 l -0.935,-1.827 2.655,0.831 c 0,0 -0.243,-1.259 -0.386,-2.232 0.688,-0.134 1.355,-0.285 2.005,-0.448 2.072,2.654 5.827,4.434 8.196,4.679 -0.985,-1.351 -1.424,-3.717 -1.619,-5.519 7.741,6.45 17.785,14.975 20.279,13.339 2.619,-1.718 10.411,-28.104 10.685,-48.401 4.075,-2.112 14.147,-7.46 16.127,-9.744 -2.495,0.383 -10.932,0.355 -9.953,0 8.958,-3.249 19.355,-14.852 19.932,-15.534 -6.849,1.785 -10.747,-0.693 -9.404,-2.367 1.344,-1.673 8.06,-6.662 8.06,-6.662 0,0 -3.303,-0.428 -6.888,-1.073 1.733,-4.438 2.858,-7.936 2.858,-9.363 0,-0.961 -7.764,3.887 -8.059,2.185 -0.254,-1.463 5.081,-8.709 4.541,-10.555 -1.919,0.384 -6.015,0.437 -6.844,-1.535 -1.069,-2.542 2.655,-9.635 0.959,-12.281 -2.878,3.742 -6.767,2.97 -8.827,0.767 -3.901,-4.669 1.747,-8.217 -0.959,-10.106 -16.312,-11.386 -21.684,-47.078 -28.209,-55.906 -6.524,-8.828 -12.665,-26.482 -12.665,-26.482 v -16.503 c 0,0 -1.812,-79.445 -2.057,-84.434 -0.087,-1.764 0.819,-5.162 2.226,-9.017 C -73.617,-183.834 0,-100.518 0,0 m -351.388,-99.596 1.535,22.835 -7.675,-23.411 c 0,0 -3.495,-7.666 -7.788,-17.073 3.734,-5.209 7.709,-10.233 11.911,-15.055 1.554,4.581 2.748,8.377 2.976,9.868 0.769,4.99 0.194,20.917 -0.959,22.836 m 86.546,-76.439 c 0.269,5.697 -6.14,48.998 -8.059,51.876 -1.918,2.879 -7.677,36.268 -7.677,36.268 -1.928,-0.109 -3.933,-3.261 -4.894,-5.564 -1.385,0.087 -3.903,5.351 -4.22,5.277 -1.163,-0.268 -2.879,-2.303 -3.359,-4.414 -1.789,0.508 -8.64,8.068 -10.41,8.689 -12.533,4.396 -24.468,11.173 -34.302,14.05 6.08,-3.154 24.556,-12.901 32.334,-17.173 -0.767,-19.191 -22.036,-50.844 -28.178,-60.44 -0.606,-0.948 -1.188,-1.978 -1.748,-3.063 20.342,-18.107 44.375,-32.15 70.834,-40.862 -0.323,5.131 -0.556,10.381 -0.321,15.356 M -399.107,28.308 c 0.01,0.006 0.006,0.011 0.015,0.017 0.014,0.025 0.028,0.05 0.043,0.075 -0.052,0.128 -0.89,0.114 -1.878,0.05 -0.108,-0.76 -0.221,-1.518 -0.32,-2.281 1.135,1.184 1.955,2.015 2.14,2.139 m 205.651,-223.533 c 0.411,-2.979 1.151,-4.833 1.891,-5.999 -3.281,-0.159 -6.583,-0.244 -9.903,-0.244 -14.221,0 -28.094,1.482 -41.481,4.284 0.151,2.911 0.367,5.286 0.367,5.286 0,0 4.605,6.14 3.07,10.746 -1.535,4.605 -1.279,74.072 1.407,78.294 2.687,4.221 27.761,13.816 27.761,13.816 -0.384,-4.605 -4.317,-15.831 -3.55,-17.75 1.728,0.384 3.55,0.672 3.55,0.672 l -1.919,-9.403 c 0,0 4.989,5.181 5.373,3.646 0.049,-0.195 -1.335,-4.659 -0.959,-6.909 0.184,-1.097 2.021,0.696 2.266,-0.789 3.221,-19.503 11.296,-69.628 12.127,-75.65"
             style="fill:#fbb040;fill-opacity:1;fill-rule:nonzero;stroke:none"
             id="path8739" />
        </g>
        <g
           id="g8741"
           transform="translate(386.2793,343.3091)">
          <path
             d="M 0,0 C 0.456,1.663 2.232,9.755 0.193,10.586 -1.845,11.418 -4.376,9.626 -4.48,8.955 -4.585,8.284 -4.19,2.783 -4.19,2.783 l -1.424,6.363 c -1.654,1.205 -5.469,2.592 -5.405,-1.054 0.064,-3.646 3.377,-8.571 2.673,-10.619 -0.703,-2.048 3.954,-1.726 7.377,-0.895 C 2.455,-2.59 -0.456,-1.663 0,0"
             style="fill:#ed1c24;fill-opacity:1;fill-rule:nonzero;stroke:none"
             id="path8743" />
        </g>
        <g
           id="g8745"
           transform="translate(319.043,381.2461)">
          <path
             d="m 0,0 c -0.007,-0.01 -0.011,-0.016 -0.017,-0.024 0.004,0 0.007,-0.001 0.01,-0.002 0.005,0.005 0.015,0.016 0.022,0.024 z m 77.598,37.856 c 1.086,0 1.966,0.881 1.966,1.967 0,0.1 -0.014,0.195 -0.029,0.291 -0.206,-0.174 -0.463,-0.291 -0.754,-0.291 -0.653,0 -1.183,0.53 -1.183,1.183 0,0.291 0.117,0.549 0.291,0.755 -0.096,0.014 -0.192,0.029 -0.291,0.029 -1.086,0 -1.967,-0.881 -1.967,-1.967 0,-1.086 0.881,-1.967 1.967,-1.967 M 54.234,-29.238 c 0.384,-0.064 0,7.1 0,7.1 0,0 -3.71,2.559 -3.582,0.832 0,0 3.199,-7.868 3.582,-7.932 M 68.09,-45.654 c 0.253,-0.125 0.515,-0.224 0.647,-0.244 0.083,0.772 0.09,1.681 -0.033,1.83 -0.106,0.13 -0.576,0.229 -1.031,0.266 z m -0.732,-0.071 c 0.119,-0.027 0.243,-0.056 0.374,-0.088 l -0.15,0.668 c -0.067,-0.016 -0.134,-0.033 -0.198,-0.048 l -0.014,-0.469 c 0.003,-0.026 -0.01,-0.039 -0.012,-0.063 m 1.247,21.069 c 0.336,0.443 -0.009,2.738 -0.009,2.738 0.062,0.524 -1.352,-0.291 -1.352,-0.291 l -0.552,-2.999 c 0,0 1.578,0.109 1.913,0.552 m -4,-1.031 c 0.241,0 1.824,0.479 1.824,0.479 l -0.191,2.808 c 0.066,0.525 -1.297,-0.401 -1.297,-0.401 0,0 -0.575,-2.886 -0.336,-2.886 m -2.542,-1.104 c 0.288,-0.432 1.631,0.72 1.919,1.104 0.288,0.383 0,2.782 0,2.782 -0.052,0.514 -1.631,0 -1.631,0 0,0 -0.576,-3.454 -0.288,-3.886 m -2.607,1.104 c 0.288,-0.384 1.631,-1.536 1.919,-1.104 0.288,0.432 -0.288,3.886 -0.288,3.886 0,0 -1.578,0.514 -1.631,0 0,0 -0.288,-2.399 0,-2.782 m -0.624,0 c 0.24,0 -0.335,2.886 -0.335,2.886 0,0 -1.362,0.926 -1.297,0.401 l -0.19,-2.808 c 0,0 1.583,-0.479 1.822,-0.479 m -4,1.031 c 0.336,-0.443 1.913,-0.552 1.913,-0.552 l -0.552,2.999 c 0,0 -1.413,0.815 -1.35,0.291 0,0 -0.347,-2.295 -0.011,-2.738 m -0.147,-17.918 c -0.131,0.254 1.101,-4.224 1.101,-4.224 -0.021,-0.632 1.459,-0.304 2.957,0.187 -0.075,0.054 -0.12,0.136 -0.119,0.238 -0.04,0.212 -0.113,0.635 -0.149,1.055 -0.675,0.084 -1.253,0.214 -1.496,0.425 -0.939,0.816 -2.043,1.832 -2.294,2.319 m 4.131,-3.783 0.192,-0.018 v 10e-4 z m 0.808,0.368 0.269,1.88 c -0.451,-0.075 -0.912,-0.209 -1.007,-0.347 -0.111,-0.158 -0.032,-1.066 0.112,-1.828 0.13,0.031 0.384,0.149 0.626,0.295 m 0.718,0.049 -0.054,0.5 c -0.065,0.002 -0.13,0.002 -0.197,0.004 l -0.106,-0.738 c 0.13,0.049 0.259,0.097 0.381,0.145 -0.009,0.029 -0.025,0.049 -0.024,0.089 m 0.192,0.004 v 0 l 0.192,-0.018 v 0.003 z m 0.766,0.442 c 0.107,0.692 0.199,1.474 0.199,1.797 -0.213,-0.058 -0.604,-0.184 -0.979,-0.313 l 0.197,-1.826 c 0.133,0.051 0.364,0.188 0.583,0.342 m 0.393,0.046 c -0.003,-0.018 -0.005,-0.032 -0.007,-0.05 0.073,0.03 0.123,0.053 0.123,0.053 0,0 -0.046,-0.002 -0.116,-0.003 m 1.54,2.275 c -0.012,0.019 -0.059,0.021 -0.12,0.028 -0.296,-0.002 -0.752,-0.263 -0.858,-0.418 -0.089,-0.156 -0.016,-1.099 0.109,-1.889 0.107,-0.04 0.474,0.022 0.835,0.141 0.099,0.922 0.139,1.969 0.034,2.138 m 2.093,-2.155 c 0.001,0 0.001,0 0.001,0.001 v 10e-4 z m -0.052,1.887 c -0.129,0.158 -0.699,0.439 -0.987,0.416 -0.055,-0.004 -0.081,-0.018 -0.086,-0.027 -0.088,-0.18 0.066,-1.263 0.268,-2.208 0.368,-0.092 0.745,-0.125 0.845,-0.075 0.064,0.797 0.062,1.743 -0.04,1.894 m 0.765,-0.077 c 0.025,-0.322 0.18,-1.093 0.342,-1.776 0.229,-0.138 0.471,-0.253 0.607,-0.294 l 0.052,1.837 c -0.385,0.099 -0.783,0.192 -1.001,0.233 m 1.197,5.581 c 0.456,1.663 2.233,9.755 0.194,10.586 -2.038,0.832 -4.57,-0.96 -4.674,-1.631 -0.105,-0.671 0.29,-6.172 0.29,-6.172 l -1.424,6.363 c -1.653,1.205 -5.469,2.592 -5.404,-1.054 0.063,-3.646 3.377,-8.572 2.673,-10.619 -0.703,-2.047 3.954,-1.726 7.376,-0.895 3.424,0.832 0.513,1.759 0.969,3.422 m -19.973,21.46 c 1.378,-1.709 5.039,-2.49 9.229,-2.673 -3.57,1.519 -6.21,5.62 -7.566,8.079 -1.535,2.782 -1.02,5.133 0,6.62 0.778,1.138 2.548,2.852 6.79,3.742 2.551,0.535 11.375,-0.67 13.037,-3.742 1.661,-3.072 -2.365,-9.307 -3.265,-11.226 -0.521,-1.112 -1.526,-2.542 -3.114,-3.384 3.728,0.255 7.257,0.846 9.451,1.561 5.885,1.919 8.188,6.846 8.57,11.195 0.385,4.348 13.242,28.336 20.342,29.295 7.101,0.96 -5.18,11.706 -9.403,4.03 C 87.112,19.344 78.726,-5.062 69.15,-1.4 55.757,3.721 53.147,-1.189 50.268,-0.805 47.391,-0.421 37.795,15.314 33.382,16.082 c -4.414,0.768 -3.903,-1.343 -3.903,-1.343 7.037,-1.791 14.585,-27.25 17.784,-31.216 m -5.022,-30.67 c -6.548,4.301 -12.675,9.342 -17.603,15.419 -2.468,3.028 -4.614,6.311 -6.395,9.783 -1.795,3.47 -3.185,7.124 -4.649,10.772 -0.746,1.819 -1.52,3.642 -2.505,5.376 -0.496,0.864 -1.039,1.707 -1.655,2.5 -0.64,0.869 -1.561,1.433 -2.442,1.902 C 5.19,-0.473 3.288,0.12 1.364,0.608 L 0.871,0.723 c 0.175,0.269 0.322,0.529 0.484,0.8 0.495,0.862 0.956,1.731 1.409,2.606 0.903,1.75 1.763,3.52 2.576,5.316 0.404,0.899 0.796,1.805 1.161,2.727 0.351,0.94 0.729,1.823 0.894,2.932 0.058,0.291 -0.056,0.791 -0.3,1.036 -0.232,0.272 -0.496,0.425 -0.749,0.552 -0.513,0.244 -1.019,0.365 -1.523,0.466 -1.006,0.191 -2.003,0.261 -2.997,0.301 -1.63,0.057 -3.245,0.006 -4.864,-0.09 1.709,2.235 3.4,4.481 5.053,6.763 l 1.375,1.949 0.666,1.001 0.32,0.525 c 0.092,0.203 0.235,0.332 0.286,0.742 0.052,0.539 -0.228,1.094 -0.579,1.415 -0.351,0.335 -0.743,0.546 -1.133,0.721 -0.783,0.338 -1.581,0.526 -2.377,0.678 -1.593,0.293 -3.186,0.416 -4.776,0.504 L -6.58,31.77 c -0.234,0.01 -0.461,0.026 -0.693,0.039 2.254,2.193 4.379,4.53 6.212,7.105 0.916,1.309 1.778,2.677 2.331,4.222 0.127,0.391 0.24,0.789 0.295,1.209 0.037,0.199 0.046,0.474 -0.053,0.727 -0.094,0.264 -0.341,0.474 -0.572,0.553 -0.936,0.287 -1.729,0.015 -2.51,-0.177 -0.779,-0.225 -1.525,-0.52 -2.255,-0.852 -0.29,-0.133 -0.574,-0.279 -0.858,-0.429 l 0.48,0.626 1.432,1.895 5.677,7.613 2.806,3.832 c 0.911,1.292 1.889,2.545 2.691,3.908 C 7.575,60.695 6.572,59.462 5.636,58.188 l -2.879,-3.773 -5.824,-7.498 -1.469,-1.864 -0.739,-0.928 -0.371,-0.46 -0.187,-0.227 -0.032,-0.037 c -0.029,-0.027 -0.057,-0.047 -0.086,-0.078 l -0.036,-0.049 c -0.015,-0.031 0.007,0.036 -0.037,-0.077 -0.028,-0.117 0.015,-0.239 0.109,-0.277 0.154,-0.097 0.35,0.091 0.294,0.052 l 0.016,0.018 0.031,0.034 0.044,0.054 c 0.206,0.184 0.56,0.383 0.862,0.546 0.344,0.18 0.695,0.35 1.052,0.508 0.714,0.315 1.446,0.594 2.191,0.801 0.723,0.192 1.559,0.379 2.151,0.173 C 1.266,44.961 0.919,44.014 0.707,43.335 0.163,41.902 -0.699,40.577 -1.62,39.316 -3.48,36.793 -5.67,34.514 -7.942,32.343 L -8.37,31.937 -8.424,31.886 -8.45,31.86 -8.464,31.848 c 0.015,0.012 -0.031,-0.021 -0.087,-0.108 -0.041,-0.088 -0.07,-0.123 -0.064,-0.259 -0.006,-0.117 0.107,-0.284 0.132,-0.294 0.043,-0.049 0.158,-0.112 0.166,-0.11 0.063,-0.027 0.112,-0.039 0.142,-0.045 0.142,-0.032 0.242,-0.04 0.35,-0.053 0.418,-0.038 0.809,-0.053 1.208,-0.072 l 2.366,-0.114 C -2.683,30.7 -1.114,30.57 0.406,30.283 1.163,30.137 1.914,29.95 2.584,29.657 3.253,29.368 3.818,28.912 3.748,28.409 3.767,28.419 3.664,28.212 3.579,28.066 L 3.278,27.58 2.623,26.609 1.249,24.687 C -0.614,22.14 -2.542,19.629 -4.463,17.121 l -0.679,-0.886 1.115,0.088 c 1.928,0.152 3.887,0.226 5.818,0.166 0.964,-0.035 1.93,-0.103 2.851,-0.275 C 5.099,16.126 5.555,16.012 5.929,15.833 6.113,15.744 6.277,15.635 6.363,15.53 6.451,15.405 6.464,15.392 6.45,15.196 6.334,14.359 5.964,13.405 5.627,12.515 5.273,11.612 4.89,10.716 4.493,9.825 3.696,8.044 2.848,6.282 1.959,4.543 1.514,3.675 1.059,2.81 0.58,1.969 0.345,1.562 0.082,1.104 -0.158,0.8 -0.163,0.796 -0.189,0.768 -0.17,0.786 -0.154,0.795 -0.184,0.784 -0.09,0.83 -0.042,0.843 -0.054,0.846 0.011,0.851 -0.062,0.77 -0.191,0.619 -0.411,0.353 c 0.016,-0.074 0.053,-0.154 0.103,-0.216 0.015,-0.039 0.16,-0.142 0.291,-0.161 0.004,0 0.007,-0.001 0.01,-0.002 0.013,-0.001 0.027,-0.006 0.038,-0.006 0.056,0 0.085,0.003 0.108,0.007 l 0.31,-0.063 0.705,-0.161 C 3.029,-0.714 4.9,-1.294 6.598,-2.155 7.435,-2.598 8.24,-3.094 8.77,-3.819 c 0.595,-0.749 1.125,-1.553 1.616,-2.384 0.972,-1.667 1.757,-3.455 2.518,-5.255 1.497,-3.612 2.943,-7.288 4.795,-10.771 1.843,-3.483 4.033,-6.791 6.577,-9.797 5.092,-6.027 11.334,-10.951 17.965,-15.121 M 6.964,99.173 c 2.558,-10.618 3.582,-35.053 8.059,-37.484 4.478,-2.431 7.932,2.687 7.42,5.118 -0.511,2.43 -9.466,5.756 -9.466,5.756 5.373,0.384 13.096,-4.349 13.736,-2.558 0.639,1.791 -10.474,8.699 -12.713,11.769 6.141,-3.07 13.193,-7.279 14.089,-7.024 0.895,0.256 -3.087,6.129 -2.319,7.28 2.302,-3.326 4.221,-5.245 7.612,-4.541 -3.647,7.484 -23.476,23.347 -26.418,21.684 m 26.165,-61.63 c 0.87,-5.043 9.241,-4.949 14.795,-3.785 0.413,0.087 1.082,0.915 0.31,0.991 -3.147,-0.518 -4.584,3.891 -7.12,5.051 -2.537,1.159 -5.88,0.122 -7.985,-2.257 m 38.306,-2.886 c 0,0 2.155,0.872 5.719,0.872 5.396,0 4.811,4.445 5.88,5.721 1.07,1.276 1.695,2.127 -4.473,1.596 -6.169,-0.532 -5.995,-5.435 -7.976,-7.317 -0.582,-0.553 0.85,-0.872 0.85,-0.872 m 15.038,41.425 c 2.111,0 2.942,4.861 4.861,15.223 2.098,-5.069 -0.703,-16.055 1.151,-17.462 4.319,1.247 6.333,8.827 9.02,18.997 0.767,-11.61 -4.606,-21.044 -2.11,-23.027 2.232,0.045 2.558,6.46 4.796,12.857 0,0 -0.959,-6.716 2.303,-17.654 5.565,4.029 0.576,39.722 -5.948,45.862 C 97.859,111.454 76.494,83.182 86.473,76.082 M 69.178,-28.79 c 0.383,0.064 3.582,7.932 3.582,7.932 0.128,1.727 -3.582,-0.832 -3.582,-0.832 0,0 -0.384,-7.164 0,-7.1 m 4.118,-12.377 c -0.177,0.022 -1.66,-1.597 -2.753,-2.817 -0.215,-0.243 -0.747,-0.481 -1.364,-0.696 0.013,-0.484 -0.034,-1.027 -0.062,-1.278 0.004,-0.048 -0.006,-0.092 -0.02,-0.133 1.491,-0.266 2.999,-0.384 2.925,0.266 0,0 1.558,4.622 1.274,4.658 m 1.129,-159.976 c 2.574,-7.049 6.832,-15.638 9.809,-18.616 4.606,-4.605 13.049,-6.14 13.049,-6.14 l 6.78,-12.921 c 0,0 0.866,-1.086 -0.029,-2.245 -0.411,1.015 -0.974,1.899 -1.59,2.699 -1.286,1.656 -2.81,2.971 -4.381,4.174 -1.582,1.191 -3.234,2.246 -4.926,3.215 -1.693,0.968 -3.423,1.857 -5.193,2.647 3.281,-2.047 6.402,-4.37 9.115,-7.024 1.338,-1.332 2.586,-2.763 3.481,-4.307 0.56,-0.943 0.957,-1.946 1.085,-2.884 -0.819,-0.287 -1.861,-0.546 -3.191,-0.753 -5.462,-0.853 -9.61,1.023 -12.757,2.141 0.158,1.168 0.05,2.326 -0.265,3.374 -0.381,1.263 -1.03,2.39 -1.849,3.332 -0.821,0.94 -1.823,1.698 -2.924,2.188 -1.1,0.494 -2.298,0.702 -3.441,0.607 2.297,-0.316 4.143,-1.846 5.111,-3.681 0.898,-1.65 1.093,-3.603 0.538,-5.092 -0.413,0.036 -0.806,0.03 -1.171,-0.054 -3.326,-0.768 -14.065,2.056 -17.399,4.861 -8.059,6.78 -5.501,13.177 -7.548,20.341 -2.046,7.164 -1.791,9.978 -1.791,9.978 0,0 -1.099,0.196 -2.202,1.933 -0.74,1.166 -1.48,3.019 -1.891,5.999 -0.831,6.021 -8.907,56.146 -12.127,75.649 -0.245,1.486 -2.082,-0.307 -2.266,0.789 -0.376,2.25 1.008,6.714 0.959,6.91 -0.384,1.535 -5.373,-3.647 -5.373,-3.647 l 1.919,9.403 c 0,0 -1.822,-0.288 -3.55,-0.672 -0.767,1.919 3.166,13.145 3.55,17.751 0,0 -25.074,-9.595 -27.761,-13.817 -2.686,-4.222 -2.942,-73.688 -1.407,-78.294 1.535,-4.605 -3.07,-10.746 -3.07,-10.746 0,0 -0.216,-2.375 -0.367,-5.285 -0.199,-3.813 -0.286,-8.543 0.367,-10.066 1.151,-2.687 6.908,-17.271 6.908,-17.271 0,0 3.85,-8.341 5.501,-10.746 1.119,-1.631 1.919,-6.079 -0.128,-6.78 -1.548,-0.532 -3.599,-2.096 -5.17,-2.185 -0.093,0.617 -0.231,1.212 -0.4,1.776 -0.398,1.306 -0.968,2.49 -1.605,3.611 -1.269,2.244 -2.797,4.266 -4.467,6.137 1.253,-2.164 2.32,-4.435 3.061,-6.753 0.374,-1.155 0.658,-2.329 0.757,-3.467 0.1,-1.063 0.036,-2.101 -0.262,-2.914 -1.814,-1.984 -3.719,-1.957 -10.744,1.044 -0.345,1.078 -0.592,2.227 -0.758,3.383 -0.188,1.228 -0.272,2.485 -0.316,3.748 -0.036,1.262 -0.024,2.535 0.075,3.807 -0.352,-1.228 -0.619,-2.484 -0.841,-3.753 -0.213,-1.271 -0.387,-2.557 -0.452,-3.866 -0.037,-0.759 -0.049,-1.529 -0.024,-2.306 -0.201,0.089 -0.395,0.175 -0.602,0.268 -2.635,-0.493 -5.502,0.951 -7.943,2.571 -0.033,0.573 -0.041,1.156 -0.031,1.738 0.021,1.274 0.158,2.564 0.362,3.848 0.209,1.284 0.472,2.57 0.832,3.835 -0.599,-1.173 -1.112,-2.393 -1.575,-3.64 -0.459,-1.249 -0.857,-2.529 -1.143,-3.856 -0.051,-0.242 -0.098,-0.488 -0.146,-0.733 -1.525,1.117 -2.768,2.115 -3.49,2.39 -2.012,0.768 -0.172,17.576 -0.172,17.576 2.753,5.77 1.563,16.774 0.832,28.397 -0.321,5.131 -0.554,10.381 -0.319,15.355 0.268,5.698 -6.142,48.998 -8.06,51.876 -1.92,2.879 -7.675,36.269 -7.675,36.269 -1.929,-0.11 -3.934,-3.262 -4.894,-5.565 -1.388,0.087 -3.904,5.351 -4.222,5.278 -1.162,-0.269 -2.879,-2.304 -3.358,-4.414 -1.79,0.508 -8.642,8.067 -10.41,8.688 -12.532,4.397 -24.467,11.173 -34.302,14.051 6.08,-3.154 24.556,-12.901 32.335,-17.174 -0.769,-19.19 -22.038,-50.844 -28.179,-60.439 -0.606,-0.949 -1.189,-1.979 -1.748,-3.064 -5.092,-9.895 -8.116,-24.595 -7.986,-27.936 0.205,-5.245 0.828,-32.047 4.81,-34.925 0,0 5.5,-8.955 8.572,-8.955 3.071,0 5.623,-6.588 5.623,-6.588 0,0 0.147,-0.694 0.022,-1.574 -0.447,0.515 -0.916,1.008 -1.422,1.456 -1.3,1.159 -2.718,2.137 -4.209,2.954 -1.494,0.808 -3.045,1.487 -4.651,1.961 1.513,-0.712 2.922,-1.611 4.233,-2.606 1.308,-1.002 2.498,-2.132 3.518,-3.369 0.637,-0.765 1.168,-1.596 1.622,-2.452 -0.597,-0.683 -1.543,-1.259 -3.047,-1.498 -0.952,-0.181 -2.347,-0.311 -3.841,-0.405 -0.091,0.317 -0.188,0.63 -0.334,0.902 -0.162,0.353 -0.32,0.705 -0.529,1.009 -0.776,1.27 -1.73,2.316 -2.756,3.249 -1.036,0.921 -2.146,1.729 -3.327,2.408 -1.179,0.658 -2.452,1.255 -3.791,1.355 1.288,-0.355 2.36,-1.15 3.349,-1.984 0.983,-0.85 1.867,-1.805 2.64,-2.82 0.764,-1.02 1.412,-2.118 1.817,-3.222 0.133,-0.348 0.215,-0.693 0.275,-1.031 -2.719,-0.105 -5.107,-0.117 -5.107,-0.117 -2.932,-0.392 -4.121,-0.028 -5.33,0.524 l -0.007,0.076 c -0.103,0.894 -0.291,1.787 -0.566,2.633 -0.55,1.698 -1.461,3.195 -2.541,4.469 0.648,-1.544 1.021,-3.162 1.03,-4.731 0.002,-0.508 -0.041,-1.007 -0.106,-1.503 -0.749,0.258 -1.667,0.499 -2.924,0.669 -5.647,0.768 -3.534,5.278 -5.58,6.429 -2.045,1.152 0.481,5.469 0.097,12.377 -0.384,6.908 -7.676,37.611 -9.211,45.671 -1.535,8.061 2.303,9.979 2.303,9.979 0,0 5.656,15.085 9.303,25.825 1.556,4.581 2.748,8.377 2.978,9.868 0.769,4.989 0.192,20.917 -0.959,22.836 l 1.535,22.835 -7.677,-23.411 c 0,0 -3.494,-7.666 -7.789,-17.074 -6.59,-14.44 -15.066,-32.987 -15.686,-34.226 -1.023,-2.047 -7.114,-29.273 -7.269,-32.239 -0.726,-13.945 3.431,-29.168 4.455,-31.215 1.023,-2.047 8.701,-14.532 8.701,-14.532 0,0 3.81,-7.794 -2.599,-9.027 -0.359,0.868 -0.76,1.706 -1.179,2.526 -1.016,1.942 -2.154,3.787 -3.388,5.553 0.782,-2.004 1.443,-4.048 1.954,-6.099 0.259,-1.065 0.479,-2.15 0.615,-3.21 -1.524,-1.66 -3.895,-4.592 -5.065,-4.667 -1.002,-0.065 -3.041,0.669 -5.123,1.519 -0.293,1.199 -0.496,2.446 -0.627,3.71 -0.3,2.872 -0.315,5.815 -0.132,8.747 -0.689,-2.861 -1.192,-5.783 -1.403,-8.771 -0.063,-0.906 -0.095,-1.819 -0.086,-2.74 -1.826,0.781 -3.384,1.451 -3.881,1.472 -1.677,0.071 -2.703,0.955 -3.484,1.987 -0.103,0.994 -0.16,2 -0.161,3.011 0.009,2.083 0.194,4.202 0.727,6.272 -1.014,-1.89 -1.722,-3.96 -2.251,-6.084 -0.043,-0.183 -0.079,-0.369 -0.12,-0.553 -0.089,0.104 -0.184,0.202 -0.28,0.289 -2.4,2.14 -4.142,2.673 -4.19,4.573 -0.037,1.535 2.673,9.489 2.162,13.582 -0.511,4.094 0.429,21.759 -3.985,33.145 -3.33,8.589 -5.117,12.793 -2.046,19.446 3.069,6.652 8.207,21.489 9.21,27.121 2.388,13.398 2.309,23.979 -0.156,32.572 -1.119,-3.787 -2.211,-7.572 -2.211,-7.945 0,-0.767 -3.516,19.65 -3.516,19.65 l -5.375,-7.25 -0.158,27.579 -4,-3.903 0.577,29.936 -3.839,-1.919 2.969,12.082 c -1.248,-0.816 -2.527,-1.605 -3.861,-2.339 -1.465,-0.815 -2.945,-1.645 -4.525,-2.356 -1.537,-0.752 -3.172,-1.42 -4.826,-2.075 -0.813,-0.341 -1.666,-0.645 -2.543,-0.916 l -2.62,-0.834 c -0.899,-0.252 -1.83,-0.478 -2.75,-0.71 -0.924,-0.229 -1.835,-0.473 -2.83,-0.618 l -2.939,-0.478 c -0.981,-0.154 -2.05,-0.219 -3.079,-0.317 -1.2,-0.136 -2.474,-0.17 -3.767,-0.168 -2.605,-0.36 -5.186,-0.515 -7.709,-0.518 -6.152,0.013 -12.067,0.92 -17.751,2.384 -5.68,1.468 -11.152,3.491 -16.278,6.16 -2.558,1.336 -5.033,2.835 -7.311,4.597 -2.259,1.752 -4.414,3.772 -5.766,6.255 1.852,-2.122 4.26,-3.529 6.721,-4.702 2.471,-1.167 5.066,-2.048 7.694,-2.759 3.339,-0.899 6.739,-1.521 10.145,-1.906 -1.032,0.684 -2.055,1.383 -3.054,2.118 -1.628,1.308 -3.307,2.576 -4.813,4.036 -0.074,0.067 -0.142,0.141 -0.215,0.209 -4.123,1.891 -8.039,4.11 -11.696,6.666 -2.315,1.625 -4.528,3.387 -6.565,5.328 -2.027,1.933 -3.927,4.064 -5.236,6.501 1.809,-2.084 4.035,-3.663 6.345,-5.054 2.313,-1.387 4.74,-2.562 7.218,-3.583 0.593,-0.243 1.198,-0.45 1.796,-0.676 -1.581,1.555 -3.086,3.171 -4.49,4.848 -5.016,5.986 -8.895,12.675 -11.781,19.647 -2.866,6.981 -4.747,14.298 -5.368,21.697 -0.303,3.697 -0.281,7.417 0.187,11.068 0.454,3.645 1.459,7.235 3.084,10.449 -1.06,-3.449 -1.419,-7.016 -1.263,-10.537 0.147,-3.523 0.723,-7 1.589,-10.383 1.42,-5.503 3.603,-10.758 6.319,-15.656 -0.057,0.504 -0.101,1.007 -0.147,1.51 -0.1,0.596 -0.207,1.193 -0.291,1.789 -1.099,7.767 -0.852,15.52 0.388,22.985 1.262,7.462 3.542,14.682 6.936,21.303 1.701,3.303 3.691,6.453 6.023,9.309 2.317,2.857 5.073,5.375 8.153,7.243 -2.704,-2.391 -4.869,-5.245 -6.571,-8.329 -1.71,-3.081 -3.03,-6.344 -4.054,-9.679 -0.227,-0.745 -0.435,-1.495 -0.634,-2.247 0.494,0.785 1.005,1.563 1.535,2.33 2.163,3.234 4.819,6.234 7.609,9.042 2.943,2.725 6.026,5.301 9.531,7.364 3.391,2.173 7.173,3.767 10.922,5.085 0.961,0.283 1.929,0.538 2.887,0.79 0.957,0.245 1.934,0.517 2.821,0.644 1.808,0.327 3.586,0.595 5.549,0.741 1.85,0.208 3.946,0.211 5.927,0.179 2.121,-0.13 4.181,-0.269 6.39,-0.743 4.328,-0.836 8.883,-2.634 12.615,-5.443 3.749,-2.792 6.498,-6.412 8.099,-9.963 1.629,-3.565 2.309,-7.062 2.515,-10.34 0.208,-3.286 -0.148,-6.405 -0.741,-9.363 -0.665,-2.961 -1.549,-5.799 -2.948,-8.443 -1.518,2.551 -2.975,4.897 -4.594,7.043 -1.541,2.15 -3.228,4.08 -4.918,5.633 -1.681,1.559 -3.429,2.716 -4.98,3.27 -1.568,0.561 -2.857,0.412 -3.744,-0.03 -0.899,-0.441 -1.529,-1.072 -2.382,-1.729 l -3.107,-2.411 c -0.315,-0.257 -0.574,-0.422 -0.92,-0.727 -0.329,-0.285 -0.658,-0.544 -0.984,-0.797 -0.36,-0.244 -0.562,-0.527 -0.804,-0.783 l -0.697,-0.741 c -0.856,-1.078 -1.613,-2.074 -2.236,-3.214 -0.652,-1.071 -1.174,-2.277 -1.678,-3.432 -0.453,-1.247 -0.912,-2.434 -1.233,-3.773 -0.395,-1.264 -0.586,-2.677 -0.864,-4.011 -0.145,-1.409 -0.356,-2.781 -0.384,-4.205 -0.084,-2.818 0.034,-5.646 0.557,-8.252 0.496,-2.608 1.232,-4.991 2.139,-7.046 0.957,-2.029 2.024,-3.727 3.285,-5.289 0.134,-0.22 0.321,-0.389 0.499,-0.569 0.177,-0.18 0.339,-0.379 0.502,-0.581 0.374,-0.356 0.762,-0.709 1.132,-1.108 0.353,-0.241 0.668,-0.539 1.005,-0.825 -1.682,1.859 -3.107,3.952 -4.115,6.224 -0.69,1.594 -1.181,3.254 -1.467,4.93 -0.229,1.684 -0.351,3.367 -0.169,5.02 0.265,3.308 1.372,6.414 2.837,9.211 -0.909,-3.033 -1.359,-6.183 -1.015,-9.201 0.122,-1.512 0.53,-2.967 0.998,-4.353 0.521,-1.377 1.201,-2.668 2.011,-3.853 1.658,-2.353 3.846,-4.239 6.291,-5.684 2.469,-1.426 5.181,-2.432 7.987,-3.121 2.469,-0.612 5.008,-0.966 7.576,-1.147 2.193,0.455 4.434,1.01 6.695,1.661 4.175,1.21 8.422,2.716 12.6,4.535 0.646,0.295 1.307,0.605 1.963,0.911 l -5.972,1.588 8.467,7.385 c 0.097,0.296 0.192,0.59 0.296,0.891 l -6.41,-0.42 c 0,0 6.624,7.179 10.168,10.881 1.134,1.184 1.955,2.015 2.14,2.139 0.01,0.006 0.007,0.01 0.014,0.016 0.016,0.026 0.027,0.05 0.043,0.075 -0.051,0.129 -0.889,0.114 -1.877,0.051 -1.504,-0.097 -3.359,-0.307 -3.359,-0.307 l 3.825,3.469 10.868,9.855 c 0,0 -2.606,-0.255 -4.395,1.515 1.791,1.536 18.84,8.518 18.84,8.518 l -0.002,-10e-4 c 31.162,15.199 86.017,14.388 91.31,12.784 1.852,-0.561 6.324,0.279 11.765,1.88 l -3.773,1.372 13.685,2.486 -3.255,2.801 c 0,0 10.395,1.923 10.338,1.895 -0.057,-0.029 -2.854,4.63 -2.854,4.63 l 11.386,-0.224 -1.151,4.542 9.049,-1.525 c 0.03,0.059 0.076,0.122 0.098,0.178 0,0 -4.222,23.606 -4.03,26.485 0.19,2.86 14.527,-4.574 26.005,-10.693 -0.42,0.858 -0.962,1.866 -0.962,1.866 h 2.782 l -1.44,1.464 c 0,0 5.243,-0.273 5.278,0.359 0.035,0.631 -2.591,1.631 -2.591,2.111 0,0.479 6.076,-1.313 7.004,-0.768 0.929,0.545 -0.863,1.631 -3.741,4.317 2.704,0.247 6.701,-1.592 9.229,-2.947 0.383,0.094 0.766,0.189 1.155,0.278 -0.201,1.787 -0.64,4.082 -1.605,5.404 2.073,-0.215 5.213,-1.603 7.352,-3.726 -0.026,4.175 1.939,7.708 2.579,7.708 -0.709,-1.733 -0.1,-5.274 2.422,-7.655 0.402,0.039 0.801,0.074 1.203,0.107 1.781,1.924 5.734,5.859 8.841,6.53 -1.943,-3.424 -3.329,-4.995 -2.28,-5.238 1.049,-0.243 6.312,3.283 6.455,2.826 0.144,-0.458 -2.064,-2.197 -1.842,-2.789 0.223,-0.592 5.144,1.235 5.144,1.235 l -0.937,-1.828 2.657,0.832 c 0,0 -0.243,-1.26 -0.386,-2.233 0.688,-0.133 1.354,-0.284 2.005,-0.448 2.072,2.655 5.827,4.434 8.196,4.679 -0.985,-1.35 -1.424,-3.716 -1.619,-5.518 7.741,6.449 17.785,14.974 20.279,13.338 2.618,-1.718 10.411,-28.103 10.685,-48.401 4.075,-2.111 14.146,-7.459 16.127,-9.744 -2.495,0.384 -10.932,0.356 -9.953,0 8.958,-3.248 19.355,-14.851 19.931,-15.533 -6.848,1.785 -10.746,-0.694 -9.403,-2.367 1.344,-1.673 8.06,-6.662 8.06,-6.662 0,0 -3.303,-0.428 -6.888,-1.074 1.733,-4.437 2.858,-7.935 2.858,-9.362 0,-0.962 -7.764,3.887 -8.059,2.184 -0.254,-1.463 5.081,-8.709 4.541,-10.554 -1.919,0.384 -6.015,0.437 -6.844,-1.535 -1.069,-2.542 2.655,-9.635 0.959,-12.282 -2.878,3.742 -6.768,2.971 -8.827,0.768 -3.901,-4.67 1.747,-8.217 -0.959,-10.107 C 98.818,-20.187 93.445,-55.879 86.921,-64.706 80.395,-73.534 74.256,-91.188 74.256,-91.188 v -16.503 c 0,0 -1.812,-79.446 -2.057,-84.435 -0.087,-1.764 0.818,-5.161 2.226,-9.017 M 39.341,35.792 c 0.897,0.096 1.58,0.784 1.722,1.632 -0.068,-0.021 -0.129,-0.056 -0.202,-0.064 -0.649,-0.07 -1.233,0.4 -1.302,1.05 -0.047,0.438 0.163,0.832 0.497,1.073 -0.336,0.179 -0.728,0.264 -1.135,0.22 -1.08,-0.116 -1.862,-1.086 -1.745,-2.166 0.115,-1.08 1.085,-1.862 2.165,-1.745 M 0.073,0.855 H 0.074 C 0.055,0.835 0.051,0.835 0.06,0.854 c 0.006,0 0.007,0.001 0.013,0.001"
             style="fill:#000000;fill-opacity:1;fill-rule:nonzero;stroke:none"
             id="path8747" />
        </g>
        <g
           id="g8749"
           transform="translate(319.1172,382.1011)">
          <path
             d="M 0,0 H -0.001 -0.014 C -0.023,-0.02 -0.02,-0.02 0,0 m 42.167,-48 c -6.631,4.168 -12.873,9.092 -17.965,15.119 -2.544,3.006 -4.734,6.314 -6.577,9.797 -1.853,3.483 -3.298,7.159 -4.795,10.771 -0.761,1.8 -1.546,3.588 -2.519,5.255 -0.489,0.831 -1.02,1.635 -1.616,2.384 C 8.166,-3.949 7.361,-3.453 6.523,-3.01 4.826,-2.149 2.955,-1.569 1.08,-1.104 L 0.375,-0.943 0.064,-0.88 c -0.022,-0.004 -0.051,-0.007 -0.107,-0.007 -0.012,0 -0.025,0.005 -0.038,0.006 0.005,0.006 0.015,0.016 0.021,0.024 l -0.014,0.002 c -0.007,-0.01 -0.011,-0.016 -0.017,-0.024 -0.132,0.019 -0.276,0.122 -0.291,0.161 -0.05,0.062 -0.087,0.142 -0.103,0.216 0.219,0.266 0.348,0.417 0.421,0.498 -0.064,-0.005 -0.052,-0.008 -0.1,-0.021 -0.094,-0.046 -0.065,-0.035 -0.08,-0.044 -0.019,-0.018 0.007,0.01 0.012,0.014 0.24,0.304 0.503,0.762 0.738,1.169 0.478,0.841 0.933,1.706 1.379,2.574 0.888,1.739 1.737,3.501 2.534,5.282 0.396,0.891 0.78,1.787 1.134,2.69 0.337,0.89 0.707,1.844 0.823,2.681 0.014,0.196 10e-4,0.209 -0.087,0.334 -0.086,0.105 -0.25,0.214 -0.435,0.303 -0.374,0.179 -0.83,0.293 -1.286,0.381 -0.922,0.172 -1.887,0.24 -2.851,0.275 -1.931,0.06 -3.89,-0.014 -5.819,-0.166 l -1.114,-0.088 0.679,0.886 c 1.921,2.508 3.848,5.019 5.712,7.567 l 1.374,1.921 0.655,0.971 0.301,0.486 c 0.085,0.146 0.188,0.353 0.169,0.343 0.07,0.503 -0.495,0.959 -1.164,1.248 -0.67,0.293 -1.421,0.48 -2.178,0.626 -1.521,0.287 -3.089,0.417 -4.657,0.51 l -2.366,0.114 c -0.399,0.019 -0.791,0.034 -1.208,0.073 -0.108,0.012 -0.208,0.021 -0.35,0.052 -0.03,0.006 -0.079,0.018 -0.143,0.045 -0.007,-0.002 -0.122,0.061 -0.166,0.11 -0.024,0.01 -0.137,0.177 -0.131,0.294 -0.006,0.136 0.023,0.171 0.064,0.259 0.056,0.087 0.102,0.12 0.087,0.108 l 0.014,0.012 0.026,0.026 0.054,0.051 0.427,0.406 c 2.273,2.171 4.463,4.45 6.323,6.973 0.921,1.261 1.783,2.586 2.327,4.019 0.212,0.679 0.558,1.626 0.018,1.771 -0.591,0.206 -1.427,0.019 -2.15,-0.173 -0.745,-0.207 -1.478,-0.486 -2.191,-0.801 -0.357,-0.158 -0.708,-0.328 -1.052,-0.508 -0.302,-0.163 -0.656,-0.362 -0.862,-0.546 l -0.044,-0.054 -0.031,-0.034 -0.016,-0.018 c 0.056,0.039 -0.14,-0.149 -0.294,-0.052 -0.094,0.039 -0.137,0.16 -0.11,0.277 0.046,0.113 0.023,0.046 0.038,0.077 l 0.036,0.049 c 0.029,0.031 0.057,0.051 0.086,0.078 l 0.032,0.037 0.186,0.227 0.371,0.46 0.74,0.928 1.468,1.864 5.825,7.498 2.878,3.773 c 0.937,1.274 1.94,2.507 2.768,3.853 C 7.526,59.823 6.549,58.57 5.638,57.278 l -2.806,-3.832 -5.677,-7.613 -1.432,-1.895 -0.48,-0.626 c 0.283,0.15 0.568,0.296 0.858,0.429 0.73,0.332 1.476,0.627 2.254,0.852 0.782,0.192 1.575,0.464 2.511,0.177 0.231,-0.079 0.478,-0.289 0.57,-0.553 C 1.537,43.964 1.528,43.689 1.491,43.49 1.436,43.07 1.323,42.672 1.197,42.281 0.643,40.736 -0.219,39.368 -1.135,38.059 c -1.833,-2.575 -3.958,-4.912 -6.212,-7.105 0.232,-0.013 0.459,-0.029 0.693,-0.039 l 2.377,-0.103 c 1.588,-0.088 3.183,-0.211 4.776,-0.504 0.796,-0.152 1.594,-0.34 2.377,-0.678 0.39,-0.175 0.782,-0.386 1.133,-0.721 C 4.36,28.588 4.64,28.033 4.588,27.494 4.537,27.084 4.393,26.955 4.302,26.752 L 3.981,26.227 3.315,25.226 1.94,23.277 c -1.652,-2.282 -3.343,-4.528 -5.052,-6.763 1.619,0.096 3.234,0.147 4.864,0.09 0.994,-0.04 1.991,-0.11 2.997,-0.301 0.504,-0.101 1.01,-0.222 1.522,-0.466 0.253,-0.127 0.518,-0.28 0.75,-0.552 C 7.265,15.04 7.379,14.54 7.321,14.249 7.156,13.14 6.777,12.257 6.427,11.317 6.061,10.395 5.67,9.489 5.266,8.59 4.453,6.794 3.593,5.024 2.689,3.274 2.237,2.399 1.775,1.53 1.281,0.668 1.119,0.397 0.972,0.137 0.797,-0.132 L 1.29,-0.247 c 1.924,-0.488 3.826,-1.081 5.628,-2.003 0.881,-0.469 1.802,-1.033 2.441,-1.902 0.617,-0.793 1.159,-1.636 1.656,-2.5 0.985,-1.734 1.758,-3.557 2.505,-5.376 1.463,-3.648 2.854,-7.302 4.649,-10.772 1.781,-3.472 3.927,-6.755 6.395,-9.783 C 29.492,-38.66 35.619,-43.701 42.167,-48 m 36.54,86.968 c 0.291,0 0.548,0.117 0.754,0.291 0.257,0.217 0.43,0.53 0.43,0.892 0,0.654 -0.531,1.184 -1.184,1.184 -0.362,0 -0.676,-0.172 -0.893,-0.429 -0.173,-0.206 -0.291,-0.464 -0.291,-0.755 0,-0.653 0.531,-1.183 1.184,-1.183 M 39.484,37.555 c 0.07,-0.65 0.654,-1.12 1.303,-1.05 0.073,0.008 0.134,0.043 0.201,0.064 0.537,0.159 0.911,0.662 0.85,1.239 -0.07,0.65 -0.653,1.12 -1.304,1.05 -0.211,-0.023 -0.391,-0.114 -0.553,-0.23 -0.334,-0.241 -0.542,-0.635 -0.497,-1.073 M -100.793,-238.7 c -0.013,0.035 -0.034,0.068 -0.049,0.099 0.015,-0.123 0.032,-0.236 0.056,-0.286 0.01,-0.047 0.057,-0.024 -0.007,0.187 M 62.181,-44.418 c -0.089,-0.156 -0.016,-1.099 0.109,-1.889 0.106,-0.04 0.474,0.022 0.835,0.141 0.099,0.922 0.139,1.969 0.034,2.138 -0.013,0.019 -0.059,0.021 -0.12,0.028 -0.296,-0.002 -0.752,-0.263 -0.858,-0.418 m -1.721,-2.373 0.191,-0.018 v 0.003 z m 0.965,2.239 c -0.213,-0.058 -0.603,-0.184 -0.98,-0.313 l 0.198,-1.826 c 0.132,0.051 0.364,0.188 0.583,0.342 0.107,0.692 0.199,1.474 0.199,1.797 m -2.491,-2.678 v 10e-4 l -0.192,0.017 z m 0.885,2.266 c -0.451,-0.075 -0.912,-0.209 -1.008,-0.347 -0.11,-0.157 -0.031,-1.064 0.113,-1.828 0.13,0.031 0.384,0.149 0.626,0.296 z m 5.381,0.668 c -0.13,0.158 -0.699,0.439 -0.987,0.416 -0.055,-0.004 -0.081,-0.018 -0.086,-0.027 -0.088,-0.18 0.066,-1.263 0.268,-2.208 0.368,-0.092 0.745,-0.125 0.845,-0.075 0.064,0.797 0.062,1.743 -0.04,1.894 m 0.053,-1.885 -0.001,-0.002 c 0.001,0 0.001,0 0.001,10e-4 z m 1.054,0.032 c 0.229,-0.138 0.47,-0.253 0.607,-0.294 l 0.052,1.837 c -0.385,0.099 -0.783,0.192 -1.001,0.233 0.025,-0.322 0.18,-1.093 0.342,-1.776 m 2.356,-0.604 c 0.083,0.772 0.09,1.681 -0.033,1.83 -0.107,0.13 -0.576,0.229 -1.031,0.266 l 0.417,-1.852 c 0.252,-0.125 0.515,-0.224 0.647,-0.244 m -12.951,-0.9 c -0.022,-0.632 1.459,-0.304 2.957,0.187 -0.075,0.054 -0.12,0.136 -0.119,0.238 -0.04,0.212 -0.114,0.635 -0.15,1.055 -0.674,0.084 -1.253,0.214 -1.496,0.425 -0.938,0.816 -2.042,1.832 -2.293,2.319 -0.132,0.254 1.101,-4.224 1.101,-4.224 m 4.305,1.362 -0.106,-0.738 c 0.13,0.049 0.259,0.097 0.381,0.145 -0.009,0.029 -0.025,0.048 -0.024,0.089 l -0.054,0.5 c -0.066,0.002 -0.13,0.002 -0.197,0.004 m 1.718,-0.009 c 0,0 -0.046,-0.002 -0.116,-0.003 -0.003,-0.018 -0.005,-0.033 -0.007,-0.05 0.073,0.03 0.123,0.053 0.123,0.053 m 5.773,0.3 c -0.068,-0.016 -0.134,-0.033 -0.198,-0.048 l -0.014,-0.469 c 0.003,-0.026 -0.01,-0.039 -0.012,-0.063 0.119,-0.027 0.242,-0.056 0.374,-0.088 z m 2.961,1.161 c -0.215,-0.243 -0.747,-0.481 -1.365,-0.696 0.014,-0.484 -0.034,-1.027 -0.061,-1.278 0.004,-0.048 -0.006,-0.092 -0.021,-0.133 1.492,-0.266 2.999,-0.384 2.926,0.266 0,0 1.558,4.622 1.274,4.658 -0.177,0.022 -1.661,-1.597 -2.753,-2.817 m -6.561,18.297 c 0.288,0.383 0,2.782 0,2.782 -0.053,0.514 -1.632,0 -1.632,0 0,0 -0.575,-3.454 -0.287,-3.886 0.287,-0.432 1.631,0.72 1.919,1.104 m 2.446,0.479 -0.19,2.808 c 0.065,0.526 -1.297,-0.401 -1.297,-0.401 0,0 -0.575,-2.886 -0.336,-2.886 0.24,0 1.823,0.479 1.823,0.479 m 2.167,3.29 c 0.063,0.524 -1.351,-0.291 -1.351,-0.291 l -0.552,-2.999 c 0,0 1.578,0.109 1.913,0.552 0.336,0.443 -0.01,2.738 -0.01,2.738 m -7.22,-4.873 c 0.288,0.432 -0.288,3.886 -0.288,3.886 0,0 -1.578,0.514 -1.631,0 0,0 -0.288,-2.399 0,-2.782 0.288,-0.384 1.631,-1.536 1.919,-1.104 m -2.878,3.99 c 0,0 -1.362,0.927 -1.297,0.401 l -0.19,-2.808 c 0,0 1.582,-0.479 1.822,-0.479 0.24,0 -0.335,2.886 -0.335,2.886 m -2.304,0.592 c 0,0 -1.413,0.815 -1.351,0.291 0,0 -0.346,-2.295 -0.01,-2.738 0.336,-0.443 1.913,-0.552 1.913,-0.552 z m 16.567,1.351 c 0.128,1.727 -3.582,-0.832 -3.582,-0.832 0,0 -0.384,-7.164 0,-7.1 0.383,0.064 3.582,7.932 3.582,7.932 m -18.526,-8.38 c 0.384,-0.064 0,7.1 0,7.1 0,0 -3.71,2.559 -3.582,0.832 0,0 3.198,-7.868 3.582,-7.932 m -5.308,18.167 c -1.536,2.782 -1.02,5.133 0,6.62 0.778,1.138 2.547,2.852 6.79,3.742 2.551,0.535 11.375,-0.67 13.037,-3.742 1.661,-3.072 -2.365,-9.307 -3.265,-11.226 -0.521,-1.112 -1.526,-2.542 -3.114,-3.384 3.728,0.255 7.257,0.846 9.451,1.561 5.885,1.919 8.188,6.846 8.571,11.195 0.384,4.348 13.242,28.336 20.341,29.295 7.101,0.96 -5.181,11.706 -9.403,4.03 C 87.038,18.489 78.651,-5.917 69.076,-2.255 55.683,2.866 53.073,-2.044 50.194,-1.66 47.316,-1.276 37.721,14.459 33.308,15.227 c -4.415,0.768 -3.903,-1.343 -3.903,-1.343 7.036,-1.791 14.585,-27.25 17.784,-31.216 1.377,-1.709 5.039,-2.49 9.229,-2.673 -3.57,1.519 -6.21,5.62 -7.566,8.079 m 26.705,50.894 c 0,-1.086 0.882,-1.967 1.966,-1.967 1.087,0 1.967,0.881 1.967,1.967 0,0.1 -0.014,0.195 -0.029,0.291 0.257,0.217 0.43,0.53 0.43,0.892 0,0.654 -0.531,1.184 -1.184,1.184 -0.362,0 -0.676,-0.172 -0.893,-0.429 -0.095,0.014 -0.191,0.029 -0.291,0.029 -1.084,0 -1.966,-0.881 -1.966,-1.967 m -5.046,-4.294 c 1.981,1.882 1.807,6.785 7.976,7.317 6.168,0.531 5.543,-0.32 4.473,-1.595 -1.069,-1.277 -0.484,-5.722 -5.88,-5.722 -3.564,0 -5.719,-0.872 -5.719,-0.872 0,0 -1.432,0.319 -0.85,0.872 m -33.409,2.008 c 0.115,-1.08 1.084,-1.862 2.165,-1.745 0.897,0.096 1.58,0.784 1.721,1.632 0.537,0.159 0.911,0.662 0.85,1.239 -0.07,0.65 -0.653,1.12 -1.304,1.05 -0.211,-0.023 -0.391,-0.114 -0.553,-0.23 -0.335,0.179 -0.727,0.264 -1.134,0.22 -1.08,-0.116 -1.862,-1.086 -1.745,-2.166 m -4.047,0.006 c 2.105,2.379 5.448,3.416 7.985,2.257 2.536,-1.16 3.973,-5.569 7.12,-5.051 0.772,-0.076 0.103,-0.904 -0.31,-0.991 -5.554,-1.164 -13.925,-1.258 -14.795,3.785 m 53.343,38.539 c 2.112,0 2.943,4.861 4.862,15.223 2.097,-5.069 -0.703,-16.055 1.151,-17.462 4.318,1.247 6.333,8.827 9.02,18.997 0.767,-11.61 -4.606,-21.044 -2.111,-23.027 2.233,0.045 2.559,6.46 4.797,12.857 0,0 -0.959,-6.716 2.303,-17.654 5.565,4.029 0.576,39.722 -5.948,45.862 C 97.785,110.599 76.42,82.327 86.398,75.227 M 6.89,98.318 c 2.942,1.663 22.771,-14.2 26.418,-21.684 -3.391,-0.704 -5.31,1.215 -7.613,4.541 -0.767,-1.151 3.215,-7.024 2.32,-7.279 -0.896,-0.256 -7.949,3.953 -14.089,7.023 2.239,-3.07 13.352,-9.978 12.713,-11.769 -0.64,-1.791 -8.364,2.942 -13.737,2.558 0,0 8.955,-3.326 9.467,-5.756 0.512,-2.431 -2.942,-7.549 -7.42,-5.118 C 10.472,63.265 9.448,87.7 6.89,98.318"
             style="fill:#ffffff;fill-opacity:1;fill-rule:nonzero;stroke:none"
             id="path8751" />
        </g>
        <g
           id="g8753"
           transform="translate(460.7773,319.0039)">
          <path
             d="M 0,0 0.049,-0.023 Z"
             style="fill:#000000;fill-opacity:1;fill-rule:nonzero;stroke:none"
             id="path8755" />
        </g>
      </g>
    </g>
  </g>
</svg>
